<svg id="visual" viewBox="0 0 960 200" width="960" height="200" xmlns="http://www.w3.org/2000/svg" xmlns:xlink="http://www.w3.org/1999/xlink" version="1.1"><g>
  <path d="M0 91L7 93.5C14 96 28 101 41.8 101C55.7 101 69.3 96 83.2 95.2C97 94.3 111 97.7 125 99.7C139 101.7 153 102.3 167 103.8C181 105.3 195 107.7 208.8 109.8C222.7 112 236.3 114 250.2 114.8C264 115.7 278 115.3 292 111.2C306 107 320 99 334 98.7C348 98.3 362 105.7 375.8 109.7C389.7 113.7 403.3 114.3 417.2 111C431 107.7 445 100.3 459 99.7C473 99 487 105 501 106.7C515 108.3 529 105.7 542.8 106C556.7 106.3 570.3 109.7 584.2 109.2C598 108.7 612 104.3 626 102.3C640 100.3 654 100.7 668 103.2C682 105.7 696 110.3 709.8 109.7C723.7 109 737.3 103 751.2 103.3C765 103.7 779 110.3 793 111.2C807 112 821 107 835 106.5C849 106 863 110 876.8 108.7C890.7 107.3 904.3 100.7 918.2 101.2C932 101.7 946 109.3 953 113.2L960 117L960 0L953 0C946 0 932 0 918.2 0C904.3 0 890.7 0 876.8 0C863 0 849 0 835 0C821 0 807 0 793 0C779 0 765 0 751.2 0C737.3 0 723.7 0 709.8 0C696 0 682 0 668 0C654 0 640 0 626 0C612 0 598 0 584.2 0C570.3 0 556.7 0 542.8 0C529 0 515 0 501 0C487 0 473 0 459 0C445 0 431 0 417.2 0C403.3 0 389.7 0 375.8 0C362 0 348 0 334 0C320 0 306 0 292 0C278 0 264 0 250.2 0C236.3 0 222.7 0 208.8 0C195 0 181 0 167 0C153 0 139 0 125 0C111 0 97 0 83.2 0C69.3 0 55.7 0 41.8 0C28 0 14 0 7 0L0 0Z" fill="#00070e"></path><path d="M0 96L7 97.7C14 99.3 28 102.7 41.8 103.8C55.7 105 69.3 104 83.2 102.2C97 100.3 111 97.7 125 95.2C139 92.7 153 90.3 167 91.7C181 93 195 98 208.8 97.5C222.7 97 236.3 91 250.2 90.7C264 90.3 278 95.7 292 97.7C306 99.7 320 98.3 334 97.3C348 96.3 362 95.7 375.8 94.8C389.7 94 403.3 93 417.2 94C431 95 445 98 459 96.3C473 94.7 487 88.3 501 86.5C515 84.7 529 87.3 542.8 87.5C556.7 87.7 570.3 85.3 584.2 84.8C598 84.3 612 85.7 626 86.8C640 88 654 89 668 92.3C682 95.7 696 101.3 709.8 103.5C723.7 105.7 737.3 104.3 751.2 103.8C765 103.3 779 103.7 793 102.2C807 100.7 821 97.3 835 97.2C849 97 863 100 876.8 100.5C890.7 101 904.3 99 918.2 96.7C932 94.3 946 91.7 953 90.3L960 89L960 0L953 0C946 0 932 0 918.2 0C904.3 0 890.7 0 876.8 0C863 0 849 0 835 0C821 0 807 0 793 0C779 0 765 0 751.2 0C737.3 0 723.7 0 709.8 0C696 0 682 0 668 0C654 0 640 0 626 0C612 0 598 0 584.2 0C570.3 0 556.7 0 542.8 0C529 0 515 0 501 0C487 0 473 0 459 0C445 0 431 0 417.2 0C403.3 0 389.7 0 375.8 0C362 0 348 0 334 0C320 0 306 0 292 0C278 0 264 0 250.2 0C236.3 0 222.7 0 208.8 0C195 0 181 0 167 0C153 0 139 0 125 0C111 0 97 0 83.2 0C69.3 0 55.7 0 41.8 0C28 0 14 0 7 0L0 0Z" fill="#151d22"></path><path d="M0 97L7 97.3C14 97.7 28 98.3 41.8 98.7C55.7 99 69.3 99 83.2 98C97 97 111 95 125 93.8C139 92.7 153 92.3 167 89.2C181 86 195 80 208.8 79C222.7 78 236.3 82 250.2 86C264 90 278 94 292 93.3C306 92.7 320 87.3 334 86.8C348 86.3 362 90.7 375.8 92.8C389.7 95 403.3 95 417.2 93.3C431 91.7 445 88.3 459 85.7C473 83 487 81 501 82C515 83 529 87 542.8 89.8C556.7 92.7 570.3 94.3 584.2 95.7C598 97 612 98 626 94.7C640 91.3 654 83.7 668 81.7C682 79.7 696 83.3 709.8 84.5C723.7 85.7 737.3 84.3 751.2 86.2C765 88 779 93 793 94.2C807 95.3 821 92.7 835 91.7C849 90.7 863 91.3 876.8 89.8C890.7 88.3 904.3 84.7 918.2 85C932 85.3 946 89.7 953 91.8L960 94L960 0L953 0C946 0 932 0 918.2 0C904.3 0 890.7 0 876.8 0C863 0 849 0 835 0C821 0 807 0 793 0C779 0 765 0 751.2 0C737.3 0 723.7 0 709.8 0C696 0 682 0 668 0C654 0 640 0 626 0C612 0 598 0 584.2 0C570.3 0 556.7 0 542.8 0C529 0 515 0 501 0C487 0 473 0 459 0C445 0 431 0 417.2 0C403.3 0 389.7 0 375.8 0C362 0 348 0 334 0C320 0 306 0 292 0C278 0 264 0 250.2 0C236.3 0 222.7 0 208.8 0C195 0 181 0 167 0C153 0 139 0 125 0C111 0 97 0 83.2 0C69.3 0 55.7 0 41.8 0C28 0 14 0 7 0L0 0Z" fill="#243036"></path><path d="M0 79L7 77.7C14 76.3 28 73.7 41.8 72.2C55.7 70.7 69.3 70.3 83.2 71.8C97 73.3 111 76.7 125 79.5C139 82.3 153 84.7 167 82.8C181 81 195 75 208.8 72.8C222.7 70.7 236.3 72.3 250.2 73.7C264 75 278 76 292 75.2C306 74.3 320 71.7 334 71C348 70.3 362 71.7 375.8 74.2C389.7 76.7 403.3 80.3 417.2 81.2C431 82 445 80 459 77.3C473 74.7 487 71.3 501 70C515 68.7 529 69.3 542.8 73.2C556.7 77 570.3 84 584.2 86.7C598 89.3 612 87.7 626 83.5C640 79.3 654 72.7 668 72.8C682 73 696 80 709.8 80.8C723.7 81.7 737.3 76.3 751.2 73.5C765 70.7 779 70.3 793 71C807 71.7 821 73.3 835 76.5C849 79.7 863 84.3 876.8 84.3C890.7 84.3 904.3 79.7 918.2 76.3C932 73 946 71 953 70L960 69L960 0L953 0C946 0 932 0 918.2 0C904.3 0 890.7 0 876.8 0C863 0 849 0 835 0C821 0 807 0 793 0C779 0 765 0 751.2 0C737.3 0 723.7 0 709.8 0C696 0 682 0 668 0C654 0 640 0 626 0C612 0 598 0 584.2 0C570.3 0 556.7 0 542.8 0C529 0 515 0 501 0C487 0 473 0 459 0C445 0 431 0 417.2 0C403.3 0 389.7 0 375.8 0C362 0 348 0 334 0C320 0 306 0 292 0C278 0 264 0 250.2 0C236.3 0 222.7 0 208.8 0C195 0 181 0 167 0C153 0 139 0 125 0C111 0 97 0 83.2 0C69.3 0 55.7 0 41.8 0C28 0 14 0 7 0L0 0Z" fill="#33444a"></path><path d="M0 81L7 81.2C14 81.3 28 81.7 41.8 79C55.7 76.3 69.3 70.7 83.2 68.8C97 67 111 69 125 68.8C139 68.7 153 66.3 167 66C181 65.7 195 67.3 208.8 67.7C222.7 68 236.3 67 250.2 67.2C264 67.3 278 68.7 292 68.2C306 67.7 320 65.3 334 64.7C348 64 362 65 375.8 67.8C389.7 70.7 403.3 75.3 417.2 74.2C431 73 445 66 459 65.2C473 64.3 487 69.7 501 70.5C515 71.3 529 67.7 542.8 68.5C556.7 69.3 570.3 74.7 584.2 73.8C598 73 612 66 626 65.5C640 65 654 71 668 74.7C682 78.3 696 79.7 709.8 79.7C723.7 79.7 737.3 78.3 751.2 77C765 75.7 779 74.3 793 74.5C807 74.7 821 76.3 835 74.7C849 73 863 68 876.8 67.8C890.7 67.7 904.3 72.3 918.2 74C932 75.7 946 74.3 953 73.7L960 73L960 0L953 0C946 0 932 0 918.2 0C904.3 0 890.7 0 876.8 0C863 0 849 0 835 0C821 0 807 0 793 0C779 0 765 0 751.2 0C737.3 0 723.7 0 709.8 0C696 0 682 0 668 0C654 0 640 0 626 0C612 0 598 0 584.2 0C570.3 0 556.7 0 542.8 0C529 0 515 0 501 0C487 0 473 0 459 0C445 0 431 0 417.2 0C403.3 0 389.7 0 375.8 0C362 0 348 0 334 0C320 0 306 0 292 0C278 0 264 0 250.2 0C236.3 0 222.7 0 208.8 0C195 0 181 0 167 0C153 0 139 0 125 0C111 0 97 0 83.2 0C69.3 0 55.7 0 41.8 0C28 0 14 0 7 0L0 0Z" fill="#435a5e"></path><path d="M0 55L7 57C14 59 28 63 41.8 63.5C55.7 64 69.3 61 83.2 59.2C97 57.3 111 56.7 125 57.2C139 57.7 153 59.3 167 61.3C181 63.3 195 65.7 208.8 67C222.7 68.3 236.3 68.7 250.2 67.8C264 67 278 65 292 62.8C306 60.7 320 58.3 334 59.2C348 60 362 64 375.8 64.8C389.7 65.7 403.3 63.3 417.2 60.5C431 57.7 445 54.3 459 55.3C473 56.3 487 61.7 501 64.5C515 67.3 529 67.7 542.8 66.2C556.7 64.7 570.3 61.3 584.2 60.2C598 59 612 60 626 60C640 60 654 59 668 58C682 57 696 56 709.8 55.8C723.7 55.7 737.3 56.3 751.2 56.7C765 57 779 57 793 55.8C807 54.7 821 52.3 835 52.8C849 53.3 863 56.7 876.8 58C890.7 59.3 904.3 58.7 918.2 56.8C932 55 946 52 953 50.5L960 49L960 0L953 0C946 0 932 0 918.2 0C904.3 0 890.7 0 876.8 0C863 0 849 0 835 0C821 0 807 0 793 0C779 0 765 0 751.2 0C737.3 0 723.7 0 709.8 0C696 0 682 0 668 0C654 0 640 0 626 0C612 0 598 0 584.2 0C570.3 0 556.7 0 542.8 0C529 0 515 0 501 0C487 0 473 0 459 0C445 0 431 0 417.2 0C403.3 0 389.7 0 375.8 0C362 0 348 0 334 0C320 0 306 0 292 0C278 0 264 0 250.2 0C236.3 0 222.7 0 208.8 0C195 0 181 0 167 0C153 0 139 0 125 0C111 0 97 0 83.2 0C69.3 0 55.7 0 41.8 0C28 0 14 0 7 0L0 0Z" fill="#547071"></path><path d="M0 51L7 50.7C14 50.3 28 49.7 41.8 50.2C55.7 50.7 69.3 52.3 83.2 53.8C97 55.3 111 56.7 125 57.3C139 58 153 58 167 55.7C181 53.3 195 48.7 208.8 48.8C222.7 49 236.3 54 250.2 54.7C264 55.3 278 51.7 292 49.7C306 47.7 320 47.3 334 46.2C348 45 362 43 375.8 43C389.7 43 403.3 45 417.2 45C431 45 445 43 459 43.2C473 43.3 487 45.7 501 47.5C515 49.3 529 50.7 542.8 50.8C556.7 51 570.3 50 584.2 51.2C598 52.3 612 55.7 626 57.3C640 59 654 59 668 59C682 59 696 59 709.8 57.5C723.7 56 737.3 53 751.2 53.3C765 53.7 779 57.3 793 57.7C807 58 821 55 835 52.8C849 50.7 863 49.3 876.8 49C890.7 48.7 904.3 49.3 918.2 50.3C932 51.3 946 52.7 953 53.3L960 54L960 0L953 0C946 0 932 0 918.2 0C904.3 0 890.7 0 876.8 0C863 0 849 0 835 0C821 0 807 0 793 0C779 0 765 0 751.2 0C737.3 0 723.7 0 709.8 0C696 0 682 0 668 0C654 0 640 0 626 0C612 0 598 0 584.2 0C570.3 0 556.7 0 542.8 0C529 0 515 0 501 0C487 0 473 0 459 0C445 0 431 0 417.2 0C403.3 0 389.7 0 375.8 0C362 0 348 0 334 0C320 0 306 0 292 0C278 0 264 0 250.2 0C236.3 0 222.7 0 208.8 0C195 0 181 0 167 0C153 0 139 0 125 0C111 0 97 0 83.2 0C69.3 0 55.7 0 41.8 0C28 0 14 0 7 0L0 0Z" fill="#678785"></path><path d="M0 44L7 43.7C14 43.3 28 42.7 41.8 42.2C55.7 41.7 69.3 41.3 83.2 40.8C97 40.3 111 39.7 125 39.8C139 40 153 41 167 41.2C181 41.3 195 40.7 208.8 42.2C222.7 43.7 236.3 47.3 250.2 46.3C264 45.3 278 39.7 292 38.3C306 37 320 40 334 40.2C348 40.3 362 37.7 375.8 37.3C389.7 37 403.3 39 417.2 39.7C431 40.3 445 39.7 459 40.8C473 42 487 45 501 46.8C515 48.7 529 49.3 542.8 46.8C556.7 44.3 570.3 38.7 584.2 39C598 39.3 612 45.7 626 47.7C640 49.7 654 47.3 668 45C682 42.7 696 40.3 709.8 41.7C723.7 43 737.3 48 751.2 49C765 50 779 47 793 47.2C807 47.3 821 50.7 835 49.7C849 48.7 863 43.3 876.8 40.5C890.7 37.7 904.3 37.3 918.2 37.3C932 37.3 946 37.7 953 37.8L960 38L960 0L953 0C946 0 932 0 918.2 0C904.3 0 890.7 0 876.8 0C863 0 849 0 835 0C821 0 807 0 793 0C779 0 765 0 751.2 0C737.3 0 723.7 0 709.8 0C696 0 682 0 668 0C654 0 640 0 626 0C612 0 598 0 584.2 0C570.3 0 556.7 0 542.8 0C529 0 515 0 501 0C487 0 473 0 459 0C445 0 431 0 417.2 0C403.3 0 389.7 0 375.8 0C362 0 348 0 334 0C320 0 306 0 292 0C278 0 264 0 250.2 0C236.3 0 222.7 0 208.8 0C195 0 181 0 167 0C153 0 139 0 125 0C111 0 97 0 83.2 0C69.3 0 55.7 0 41.8 0C28 0 14 0 7 0L0 0Z" fill="#7b9e98"></path><path d="M0 34L7 34.5C14 35 28 36 41.8 34.7C55.7 33.3 69.3 29.7 83.2 29.3C97 29 111 32 125 34.5C139 37 153 39 167 37.8C181 36.7 195 32.3 208.8 29.5C222.7 26.7 236.3 25.3 250.2 24.8C264 24.3 278 24.7 292 25.5C306 26.3 320 27.7 334 30C348 32.3 362 35.7 375.8 35.8C389.7 36 403.3 33 417.2 33C431 33 445 36 459 37.2C473 38.3 487 37.7 501 36C515 34.3 529 31.7 542.8 32.7C556.7 33.7 570.3 38.3 584.2 39.8C598 41.3 612 39.7 626 37.7C640 35.7 654 33.3 668 32C682 30.7 696 30.3 709.8 31.7C723.7 33 737.3 36 751.2 38.3C765 40.7 779 42.3 793 42.2C807 42 821 40 835 37.3C849 34.7 863 31.3 876.8 31.3C890.7 31.3 904.3 34.7 918.2 35.5C932 36.3 946 34.7 953 33.8L960 33L960 0L953 0C946 0 932 0 918.2 0C904.3 0 890.7 0 876.8 0C863 0 849 0 835 0C821 0 807 0 793 0C779 0 765 0 751.2 0C737.3 0 723.7 0 709.8 0C696 0 682 0 668 0C654 0 640 0 626 0C612 0 598 0 584.2 0C570.3 0 556.7 0 542.8 0C529 0 515 0 501 0C487 0 473 0 459 0C445 0 431 0 417.2 0C403.3 0 389.7 0 375.8 0C362 0 348 0 334 0C320 0 306 0 292 0C278 0 264 0 250.2 0C236.3 0 222.7 0 208.8 0C195 0 181 0 167 0C153 0 139 0 125 0C111 0 97 0 83.2 0C69.3 0 55.7 0 41.8 0C28 0 14 0 7 0L0 0Z" fill="#92b6aa"></path><path d="M0 19L7 20.2C14 21.3 28 23.7 41.8 24.8C55.7 26 69.3 26 83.2 25.2C97 24.3 111 22.7 125 22.5C139 22.3 153 23.7 167 25C181 26.3 195 27.7 208.8 27C222.7 26.3 236.3 23.7 250.2 24.3C264 25 278 29 292 29C306 29 320 25 334 23.5C348 22 362 23 375.8 23.3C389.7 23.7 403.3 23.3 417.2 23.8C431 24.3 445 25.7 459 27.3C473 29 487 31 501 29.7C515 28.3 529 23.7 542.8 22.2C556.7 20.7 570.3 22.3 584.2 25C598 27.7 612 31.3 626 30C640 28.7 654 22.3 668 22.2C682 22 696 28 709.8 31C723.7 34 737.3 34 751.2 32.5C765 31 779 28 793 27.2C807 26.3 821 27.7 835 28.7C849 29.7 863 30.3 876.8 28.2C890.7 26 904.3 21 918.2 20.7C932 20.3 946 24.7 953 26.8L960 29L960 0L953 0C946 0 932 0 918.2 0C904.3 0 890.7 0 876.8 0C863 0 849 0 835 0C821 0 807 0 793 0C779 0 765 0 751.2 0C737.3 0 723.7 0 709.8 0C696 0 682 0 668 0C654 0 640 0 626 0C612 0 598 0 584.2 0C570.3 0 556.7 0 542.8 0C529 0 515 0 501 0C487 0 473 0 459 0C445 0 431 0 417.2 0C403.3 0 389.7 0 375.8 0C362 0 348 0 334 0C320 0 306 0 292 0C278 0 264 0 250.2 0C236.3 0 222.7 0 208.8 0C195 0 181 0 167 0C153 0 139 0 125 0C111 0 97 0 83.2 0C69.3 0 55.7 0 41.8 0C28 0 14 0 7 0L0 0Z" fill="#abcebc"></path><path d="M0 12L7 11.8C14 11.7 28 11.3 41.8 11.7C55.7 12 69.3 13 83.2 13C97 13 111 12 125 13.8C139 15.7 153 20.3 167 22.3C181 24.3 195 23.7 208.8 21.5C222.7 19.3 236.3 15.7 250.2 14.2C264 12.7 278 13.3 292 14.8C306 16.3 320 18.7 334 19.7C348 20.7 362 20.3 375.8 21.2C389.7 22 403.3 24 417.2 23C431 22 445 18 459 16.8C473 15.7 487 17.3 501 17.3C515 17.3 529 15.7 542.8 15.2C556.7 14.7 570.3 15.3 584.2 16.3C598 17.3 612 18.7 626 19.5C640 20.3 654 20.7 668 20.3C682 20 696 19 709.8 17.5C723.7 16 737.3 14 751.2 14.3C765 14.7 779 17.3 793 19.5C807 21.7 821 23.3 835 21.7C849 20 863 15 876.8 14.5C890.7 14 904.3 18 918.2 18.7C932 19.3 946 16.7 953 15.3L960 14L960 0L953 0C946 0 932 0 918.2 0C904.3 0 890.7 0 876.8 0C863 0 849 0 835 0C821 0 807 0 793 0C779 0 765 0 751.2 0C737.3 0 723.7 0 709.8 0C696 0 682 0 668 0C654 0 640 0 626 0C612 0 598 0 584.2 0C570.3 0 556.7 0 542.8 0C529 0 515 0 501 0C487 0 473 0 459 0C445 0 431 0 417.2 0C403.3 0 389.7 0 375.8 0C362 0 348 0 334 0C320 0 306 0 292 0C278 0 264 0 250.2 0C236.3 0 222.7 0 208.8 0C195 0 181 0 167 0C153 0 139 0 125 0C111 0 97 0 83.2 0C69.3 0 55.7 0 41.8 0C28 0 14 0 7 0L0 0Z" fill="#c6e7ce"></path><path d="M0 0L7 2.8C14 5.7 28 11.3 41.8 12.2C55.7 13 69.3 9 83.2 6.3C97 3.7 111 2.3 125 1.5C139 0.7 153 0.3 167 1.8C181 3.3 195 6.7 208.8 7.3C222.7 8 236.3 6 250.2 4.5C264 3 278 2 292 1.3C306 0.7 320 0.3 334 2C348 3.7 362 7.3 375.8 9.8C389.7 12.3 403.3 13.7 417.2 13.5C431 13.3 445 11.7 459 9.8C473 8 487 6 501 7C515 8 529 12 542.8 11.3C556.7 10.7 570.3 5.3 584.2 3.2C598 1 612 2 626 2.2C640 2.3 654 1.7 668 2.2C682 2.7 696 4.3 709.8 6.5C723.7 8.7 737.3 11.3 751.2 11.5C765 11.7 779 9.3 793 8.7C807 8 821 9 835 10.5C849 12 863 14 876.8 12.3C890.7 10.7 904.3 5.3 918.2 2.8C932 0.3 946 0.7 953 0.8L960 1L960 0L953 0C946 0 932 0 918.2 0C904.3 0 890.7 0 876.8 0C863 0 849 0 835 0C821 0 807 0 793 0C779 0 765 0 751.2 0C737.3 0 723.7 0 709.8 0C696 0 682 0 668 0C654 0 640 0 626 0C612 0 598 0 584.2 0C570.3 0 556.7 0 542.8 0C529 0 515 0 501 0C487 0 473 0 459 0C445 0 431 0 417.2 0C403.3 0 389.7 0 375.8 0C362 0 348 0 334 0C320 0 306 0 292 0C278 0 264 0 250.2 0C236.3 0 222.7 0 208.8 0C195 0 181 0 167 0C153 0 139 0 125 0C111 0 97 0 83.2 0C69.3 0 55.7 0 41.8 0C28 0 14 0 7 0L0 0Z" fill="#e3ffe0"></path>
</g></svg>