<svg id="visual" viewBox="0 0 960 540" width="960" height="540" xmlns="http://www.w3.org/2000/svg" xmlns:xlink="http://www.w3.org/1999/xlink" version="1.1"><rect x="0" y="0" width="960" height="540" fill="#000000"></rect><path d="M0 123L7 127C14 131 28 139 41.8 144.5C55.7 150 69.3 153 83.2 151.8C97 150.7 111 145.3 125 143.8C139 142.3 153 144.7 167 145.5C181 146.3 195 145.7 208.8 143C222.7 140.3 236.3 135.7 250.2 134.7C264 133.7 278 136.3 292 135C306 133.7 320 128.3 334 126.7C348 125 362 127 375.8 127.8C389.7 128.7 403.3 128.3 417.2 130.7C431 133 445 138 459 139.8C473 141.7 487 140.3 501 142C515 143.7 529 148.3 542.8 149.2C556.7 150 570.3 147 584.2 146C598 145 612 146 626 147.7C640 149.3 654 151.7 668 148.5C682 145.3 696 136.7 709.8 135.8C723.7 135 737.3 142 751.2 144.3C765 146.7 779 144.3 793 145.8C807 147.3 821 152.7 835 150.8C849 149 863 140 876.8 136C890.7 132 904.3 133 918.2 137.3C932 141.7 946 149.3 953 153.2L960 157L960 0L953 0C946 0 932 0 918.2 0C904.3 0 890.7 0 876.8 0C863 0 849 0 835 0C821 0 807 0 793 0C779 0 765 0 751.2 0C737.3 0 723.7 0 709.8 0C696 0 682 0 668 0C654 0 640 0 626 0C612 0 598 0 584.2 0C570.3 0 556.7 0 542.8 0C529 0 515 0 501 0C487 0 473 0 459 0C445 0 431 0 417.2 0C403.3 0 389.7 0 375.8 0C362 0 348 0 334 0C320 0 306 0 292 0C278 0 264 0 250.2 0C236.3 0 222.7 0 208.8 0C195 0 181 0 167 0C153 0 139 0 125 0C111 0 97 0 83.2 0C69.3 0 55.7 0 41.8 0C28 0 14 0 7 0L0 0Z" fill="#00070e"></path><path d="M0 143L7 139.8C14 136.7 28 130.3 41.8 128.2C55.7 126 69.3 128 83.2 126C97 124 111 118 125 116.2C139 114.3 153 116.7 167 117.8C181 119 195 119 208.8 119C222.7 119 236.3 119 250.2 119.2C264 119.3 278 119.7 292 119C306 118.3 320 116.7 334 120.2C348 123.7 362 132.3 375.8 131.8C389.7 131.3 403.3 121.7 417.2 122.8C431 124 445 136 459 141.2C473 146.3 487 144.7 501 140.3C515 136 529 129 542.8 128.3C556.7 127.7 570.3 133.3 584.2 131.7C598 130 612 121 626 116.5C640 112 654 112 668 113.8C682 115.7 696 119.3 709.8 121.5C723.7 123.7 737.3 124.3 751.2 122.8C765 121.3 779 117.7 793 119.3C807 121 821 128 835 130.8C849 133.7 863 132.3 876.8 130.2C890.7 128 904.3 125 918.2 125.7C932 126.3 946 130.7 953 132.8L960 135L960 0L953 0C946 0 932 0 918.2 0C904.3 0 890.7 0 876.8 0C863 0 849 0 835 0C821 0 807 0 793 0C779 0 765 0 751.2 0C737.3 0 723.7 0 709.8 0C696 0 682 0 668 0C654 0 640 0 626 0C612 0 598 0 584.2 0C570.3 0 556.7 0 542.8 0C529 0 515 0 501 0C487 0 473 0 459 0C445 0 431 0 417.2 0C403.3 0 389.7 0 375.8 0C362 0 348 0 334 0C320 0 306 0 292 0C278 0 264 0 250.2 0C236.3 0 222.7 0 208.8 0C195 0 181 0 167 0C153 0 139 0 125 0C111 0 97 0 83.2 0C69.3 0 55.7 0 41.8 0C28 0 14 0 7 0L0 0Z" fill="#151d22"></path><path d="M0 130L7 127.5C14 125 28 120 41.8 119.3C55.7 118.7 69.3 122.3 83.2 124.5C97 126.7 111 127.3 125 125.2C139 123 153 118 167 115.5C181 113 195 113 208.8 111.2C222.7 109.3 236.3 105.7 250.2 109.3C264 113 278 124 292 128.3C306 132.7 320 130.3 334 127.2C348 124 362 120 375.8 117.3C389.7 114.7 403.3 113.3 417.2 115.7C431 118 445 124 459 123.2C473 122.3 487 114.7 501 110C515 105.3 529 103.7 542.8 104.5C556.7 105.3 570.3 108.7 584.2 110.3C598 112 612 112 626 115.8C640 119.7 654 127.3 668 125.5C682 123.7 696 112.3 709.8 110.7C723.7 109 737.3 117 751.2 117.7C765 118.3 779 111.7 793 109.3C807 107 821 109 835 111.8C849 114.7 863 118.3 876.8 122C890.7 125.7 904.3 129.3 918.2 128.5C932 127.7 946 122.3 953 119.7L960 117L960 0L953 0C946 0 932 0 918.2 0C904.3 0 890.7 0 876.8 0C863 0 849 0 835 0C821 0 807 0 793 0C779 0 765 0 751.2 0C737.3 0 723.7 0 709.8 0C696 0 682 0 668 0C654 0 640 0 626 0C612 0 598 0 584.2 0C570.3 0 556.7 0 542.8 0C529 0 515 0 501 0C487 0 473 0 459 0C445 0 431 0 417.2 0C403.3 0 389.7 0 375.8 0C362 0 348 0 334 0C320 0 306 0 292 0C278 0 264 0 250.2 0C236.3 0 222.7 0 208.8 0C195 0 181 0 167 0C153 0 139 0 125 0C111 0 97 0 83.2 0C69.3 0 55.7 0 41.8 0C28 0 14 0 7 0L0 0Z" fill="#243036"></path><path d="M0 115L7 115.5C14 116 28 117 41.8 117C55.7 117 69.3 116 83.2 115.3C97 114.7 111 114.3 125 112.5C139 110.7 153 107.3 167 103.7C181 100 195 96 208.8 97.8C222.7 99.7 236.3 107.3 250.2 110.7C264 114 278 113 292 112C306 111 320 110 334 107.8C348 105.7 362 102.3 375.8 100.7C389.7 99 403.3 99 417.2 99.3C431 99.7 445 100.3 459 104.3C473 108.3 487 115.7 501 115.2C515 114.7 529 106.3 542.8 102.3C556.7 98.3 570.3 98.7 584.2 97.7C598 96.7 612 94.3 626 96.2C640 98 654 104 668 107.5C682 111 696 112 709.8 108.8C723.7 105.7 737.3 98.3 751.2 98C765 97.7 779 104.3 793 104.3C807 104.3 821 97.7 835 95.2C849 92.7 863 94.3 876.8 98.7C890.7 103 904.3 110 918.2 110C932 110 946 103 953 99.5L960 96L960 0L953 0C946 0 932 0 918.2 0C904.3 0 890.7 0 876.8 0C863 0 849 0 835 0C821 0 807 0 793 0C779 0 765 0 751.2 0C737.3 0 723.7 0 709.8 0C696 0 682 0 668 0C654 0 640 0 626 0C612 0 598 0 584.2 0C570.3 0 556.7 0 542.8 0C529 0 515 0 501 0C487 0 473 0 459 0C445 0 431 0 417.2 0C403.3 0 389.7 0 375.8 0C362 0 348 0 334 0C320 0 306 0 292 0C278 0 264 0 250.2 0C236.3 0 222.7 0 208.8 0C195 0 181 0 167 0C153 0 139 0 125 0C111 0 97 0 83.2 0C69.3 0 55.7 0 41.8 0C28 0 14 0 7 0L0 0Z" fill="#33444a"></path><path d="M0 83L7 83.3C14 83.7 28 84.3 41.8 88.2C55.7 92 69.3 99 83.2 102.3C97 105.7 111 105.3 125 101.2C139 97 153 89 167 85.7C181 82.3 195 83.7 208.8 83.8C222.7 84 236.3 83 250.2 82.2C264 81.3 278 80.7 292 84.5C306 88.3 320 96.7 334 101.3C348 106 362 107 375.8 106C389.7 105 403.3 102 417.2 101.5C431 101 445 103 459 104.5C473 106 487 107 501 107.5C515 108 529 108 542.8 108.2C556.7 108.3 570.3 108.7 584.2 108C598 107.3 612 105.7 626 102.3C640 99 654 94 668 94C682 94 696 99 709.8 102.5C723.7 106 737.3 108 751.2 106C765 104 779 98 793 95.3C807 92.7 821 93.3 835 94.7C849 96 863 98 876.8 100.8C890.7 103.7 904.3 107.3 918.2 106.8C932 106.3 946 101.7 953 99.3L960 97L960 0L953 0C946 0 932 0 918.2 0C904.3 0 890.7 0 876.8 0C863 0 849 0 835 0C821 0 807 0 793 0C779 0 765 0 751.2 0C737.3 0 723.7 0 709.8 0C696 0 682 0 668 0C654 0 640 0 626 0C612 0 598 0 584.2 0C570.3 0 556.7 0 542.8 0C529 0 515 0 501 0C487 0 473 0 459 0C445 0 431 0 417.2 0C403.3 0 389.7 0 375.8 0C362 0 348 0 334 0C320 0 306 0 292 0C278 0 264 0 250.2 0C236.3 0 222.7 0 208.8 0C195 0 181 0 167 0C153 0 139 0 125 0C111 0 97 0 83.2 0C69.3 0 55.7 0 41.8 0C28 0 14 0 7 0L0 0Z" fill="#435a5e"></path><path d="M0 98L7 97.5C14 97 28 96 41.8 95.7C55.7 95.3 69.3 95.7 83.2 93.5C97 91.3 111 86.7 125 83.7C139 80.7 153 79.3 167 79.7C181 80 195 82 208.8 80.3C222.7 78.7 236.3 73.3 250.2 75C264 76.7 278 85.3 292 88.5C306 91.7 320 89.3 334 87.8C348 86.3 362 85.7 375.8 84C389.7 82.3 403.3 79.7 417.2 81C431 82.3 445 87.7 459 88C473 88.3 487 83.7 501 81.8C515 80 529 81 542.8 83C556.7 85 570.3 88 584.2 90.3C598 92.7 612 94.3 626 92.2C640 90 654 84 668 83.3C682 82.7 696 87.3 709.8 88.2C723.7 89 737.3 86 751.2 82.5C765 79 779 75 793 74C807 73 821 75 835 75.3C849 75.7 863 74.3 876.8 72.8C890.7 71.3 904.3 69.7 918.2 69.8C932 70 946 72 953 73L960 74L960 0L953 0C946 0 932 0 918.2 0C904.3 0 890.7 0 876.8 0C863 0 849 0 835 0C821 0 807 0 793 0C779 0 765 0 751.2 0C737.3 0 723.7 0 709.8 0C696 0 682 0 668 0C654 0 640 0 626 0C612 0 598 0 584.2 0C570.3 0 556.7 0 542.8 0C529 0 515 0 501 0C487 0 473 0 459 0C445 0 431 0 417.2 0C403.3 0 389.7 0 375.8 0C362 0 348 0 334 0C320 0 306 0 292 0C278 0 264 0 250.2 0C236.3 0 222.7 0 208.8 0C195 0 181 0 167 0C153 0 139 0 125 0C111 0 97 0 83.2 0C69.3 0 55.7 0 41.8 0C28 0 14 0 7 0L0 0Z" fill="#547071"></path><path d="M0 82L7 82.7C14 83.3 28 84.7 41.8 81.2C55.7 77.7 69.3 69.3 83.2 68.3C97 67.3 111 73.7 125 77.7C139 81.7 153 83.3 167 82.8C181 82.3 195 79.7 208.8 75C222.7 70.3 236.3 63.7 250.2 60.8C264 58 278 59 292 60.2C306 61.3 320 62.7 334 63.8C348 65 362 66 375.8 68.8C389.7 71.7 403.3 76.3 417.2 76.5C431 76.7 445 72.3 459 73.2C473 74 487 80 501 78.8C515 77.7 529 69.3 542.8 68.2C556.7 67 570.3 73 584.2 75.5C598 78 612 77 626 77.2C640 77.3 654 78.7 668 80.2C682 81.7 696 83.3 709.8 83.8C723.7 84.3 737.3 83.7 751.2 80.5C765 77.3 779 71.7 793 69C807 66.3 821 66.7 835 65.8C849 65 863 63 876.8 61.5C890.7 60 904.3 59 918.2 58.2C932 57.3 946 56.7 953 56.3L960 56L960 0L953 0C946 0 932 0 918.2 0C904.3 0 890.7 0 876.8 0C863 0 849 0 835 0C821 0 807 0 793 0C779 0 765 0 751.2 0C737.3 0 723.7 0 709.8 0C696 0 682 0 668 0C654 0 640 0 626 0C612 0 598 0 584.2 0C570.3 0 556.7 0 542.8 0C529 0 515 0 501 0C487 0 473 0 459 0C445 0 431 0 417.2 0C403.3 0 389.7 0 375.8 0C362 0 348 0 334 0C320 0 306 0 292 0C278 0 264 0 250.2 0C236.3 0 222.7 0 208.8 0C195 0 181 0 167 0C153 0 139 0 125 0C111 0 97 0 83.2 0C69.3 0 55.7 0 41.8 0C28 0 14 0 7 0L0 0Z" fill="#678785"></path><path d="M0 69L7 69.3C14 69.7 28 70.3 41.8 69.2C55.7 68 69.3 65 83.2 65C97 65 111 68 125 69.8C139 71.7 153 72.3 167 68C181 63.7 195 54.3 208.8 54.3C222.7 54.3 236.3 63.7 250.2 65.7C264 67.7 278 62.3 292 62.2C306 62 320 67 334 66.7C348 66.3 362 60.7 375.8 59.3C389.7 58 403.3 61 417.2 61.5C431 62 445 60 459 60.8C473 61.7 487 65.3 501 66.5C515 67.7 529 66.3 542.8 64.5C556.7 62.7 570.3 60.3 584.2 60.7C598 61 612 64 626 66.5C640 69 654 71 668 72C682 73 696 73 709.8 69.2C723.7 65.3 737.3 57.7 751.2 57.2C765 56.7 779 63.3 793 65.3C807 67.3 821 64.7 835 64.8C849 65 863 68 876.8 67.8C890.7 67.7 904.3 64.3 918.2 62.2C932 60 946 59 953 58.5L960 58L960 0L953 0C946 0 932 0 918.2 0C904.3 0 890.7 0 876.8 0C863 0 849 0 835 0C821 0 807 0 793 0C779 0 765 0 751.2 0C737.3 0 723.7 0 709.8 0C696 0 682 0 668 0C654 0 640 0 626 0C612 0 598 0 584.2 0C570.3 0 556.7 0 542.8 0C529 0 515 0 501 0C487 0 473 0 459 0C445 0 431 0 417.2 0C403.3 0 389.7 0 375.8 0C362 0 348 0 334 0C320 0 306 0 292 0C278 0 264 0 250.2 0C236.3 0 222.7 0 208.8 0C195 0 181 0 167 0C153 0 139 0 125 0C111 0 97 0 83.2 0C69.3 0 55.7 0 41.8 0C28 0 14 0 7 0L0 0Z" fill="#7b9e98"></path><path d="M0 38L7 38C14 38 28 38 41.8 39.3C55.7 40.7 69.3 43.3 83.2 42.8C97 42.3 111 38.7 125 39.5C139 40.3 153 45.7 167 48.3C181 51 195 51 208.8 51.8C222.7 52.7 236.3 54.3 250.2 53.2C264 52 278 48 292 48.7C306 49.3 320 54.7 334 53.3C348 52 362 44 375.8 42.7C389.7 41.3 403.3 46.7 417.2 48.3C431 50 445 48 459 48C473 48 487 50 501 48.7C515 47.3 529 42.7 542.8 42.7C556.7 42.7 570.3 47.3 584.2 49.2C598 51 612 50 626 51.5C640 53 654 57 668 54.7C682 52.3 696 43.7 709.8 43C723.7 42.3 737.3 49.7 751.2 50.2C765 50.7 779 44.3 793 41C807 37.7 821 37.3 835 37.5C849 37.7 863 38.3 876.8 41.3C890.7 44.3 904.3 49.7 918.2 49.7C932 49.7 946 44.3 953 41.7L960 39L960 0L953 0C946 0 932 0 918.2 0C904.3 0 890.7 0 876.8 0C863 0 849 0 835 0C821 0 807 0 793 0C779 0 765 0 751.2 0C737.3 0 723.7 0 709.8 0C696 0 682 0 668 0C654 0 640 0 626 0C612 0 598 0 584.2 0C570.3 0 556.7 0 542.8 0C529 0 515 0 501 0C487 0 473 0 459 0C445 0 431 0 417.2 0C403.3 0 389.7 0 375.8 0C362 0 348 0 334 0C320 0 306 0 292 0C278 0 264 0 250.2 0C236.3 0 222.7 0 208.8 0C195 0 181 0 167 0C153 0 139 0 125 0C111 0 97 0 83.2 0C69.3 0 55.7 0 41.8 0C28 0 14 0 7 0L0 0Z" fill="#92b6aa"></path><path d="M0 34L7 32.7C14 31.3 28 28.7 41.8 29C55.7 29.3 69.3 32.7 83.2 35.8C97 39 111 42 125 43.7C139 45.3 153 45.7 167 42C181 38.3 195 30.7 208.8 27.5C222.7 24.3 236.3 25.7 250.2 29.2C264 32.7 278 38.3 292 39.5C306 40.7 320 37.3 334 37.8C348 38.3 362 42.7 375.8 41.2C389.7 39.7 403.3 32.3 417.2 30.2C431 28 445 31 459 33.8C473 36.7 487 39.3 501 38.5C515 37.7 529 33.3 542.8 33.3C556.7 33.3 570.3 37.7 584.2 37.2C598 36.7 612 31.3 626 28.5C640 25.7 654 25.3 668 28.5C682 31.7 696 38.3 709.8 40C723.7 41.7 737.3 38.3 751.2 37.5C765 36.7 779 38.3 793 36.5C807 34.7 821 29.3 835 26.7C849 24 863 24 876.8 23.8C890.7 23.7 904.3 23.3 918.2 25.3C932 27.3 946 31.7 953 33.8L960 36L960 0L953 0C946 0 932 0 918.2 0C904.3 0 890.7 0 876.8 0C863 0 849 0 835 0C821 0 807 0 793 0C779 0 765 0 751.2 0C737.3 0 723.7 0 709.8 0C696 0 682 0 668 0C654 0 640 0 626 0C612 0 598 0 584.2 0C570.3 0 556.7 0 542.8 0C529 0 515 0 501 0C487 0 473 0 459 0C445 0 431 0 417.2 0C403.3 0 389.7 0 375.8 0C362 0 348 0 334 0C320 0 306 0 292 0C278 0 264 0 250.2 0C236.3 0 222.7 0 208.8 0C195 0 181 0 167 0C153 0 139 0 125 0C111 0 97 0 83.2 0C69.3 0 55.7 0 41.8 0C28 0 14 0 7 0L0 0Z" fill="#abcebc"></path><path d="M0 19L7 20.2C14 21.3 28 23.7 41.8 24.2C55.7 24.7 69.3 23.3 83.2 21.7C97 20 111 18 125 16.8C139 15.7 153 15.3 167 15C181 14.7 195 14.3 208.8 15.3C222.7 16.3 236.3 18.7 250.2 22.2C264 25.7 278 30.3 292 32.5C306 34.7 320 34.3 334 31.3C348 28.3 362 22.7 375.8 22.8C389.7 23 403.3 29 417.2 30.2C431 31.3 445 27.7 459 27.3C473 27 487 30 501 29C515 28 529 23 542.8 21C556.7 19 570.3 20 584.2 21C598 22 612 23 626 24.7C640 26.3 654 28.7 668 28.2C682 27.7 696 24.3 709.8 24.2C723.7 24 737.3 27 751.2 29C765 31 779 32 793 32.2C807 32.3 821 31.7 835 28.5C849 25.3 863 19.7 876.8 19.3C890.7 19 904.3 24 918.2 26.8C932 29.7 946 30.3 953 30.7L960 31L960 0L953 0C946 0 932 0 918.2 0C904.3 0 890.7 0 876.8 0C863 0 849 0 835 0C821 0 807 0 793 0C779 0 765 0 751.2 0C737.3 0 723.7 0 709.8 0C696 0 682 0 668 0C654 0 640 0 626 0C612 0 598 0 584.2 0C570.3 0 556.7 0 542.8 0C529 0 515 0 501 0C487 0 473 0 459 0C445 0 431 0 417.2 0C403.3 0 389.7 0 375.8 0C362 0 348 0 334 0C320 0 306 0 292 0C278 0 264 0 250.2 0C236.3 0 222.7 0 208.8 0C195 0 181 0 167 0C153 0 139 0 125 0C111 0 97 0 83.2 0C69.3 0 55.7 0 41.8 0C28 0 14 0 7 0L0 0Z" fill="#c6e7ce"></path><path d="M0 7L7 6.5C14 6 28 5 41.8 5.3C55.7 5.7 69.3 7.3 83.2 9.3C97 11.3 111 13.7 125 13.2C139 12.7 153 9.3 167 8.5C181 7.7 195 9.3 208.8 8.5C222.7 7.7 236.3 4.3 250.2 5C264 5.7 278 10.3 292 13C306 15.7 320 16.3 334 17.3C348 18.3 362 19.7 375.8 20C389.7 20.3 403.3 19.7 417.2 16.7C431 13.7 445 8.3 459 8.8C473 9.3 487 15.7 501 19C515 22.3 529 22.7 542.8 22.5C556.7 22.3 570.3 21.7 584.2 21.8C598 22 612 23 626 19.7C640 16.3 654 8.7 668 5.5C682 2.3 696 3.7 709.8 4.8C723.7 6 737.3 7 751.2 9C765 11 779 14 793 16C807 18 821 19 835 18.5C849 18 863 16 876.8 13.7C890.7 11.3 904.3 8.7 918.2 8.5C932 8.3 946 10.7 953 11.8L960 13L960 0L953 0C946 0 932 0 918.2 0C904.3 0 890.7 0 876.8 0C863 0 849 0 835 0C821 0 807 0 793 0C779 0 765 0 751.2 0C737.3 0 723.7 0 709.8 0C696 0 682 0 668 0C654 0 640 0 626 0C612 0 598 0 584.2 0C570.3 0 556.7 0 542.8 0C529 0 515 0 501 0C487 0 473 0 459 0C445 0 431 0 417.2 0C403.3 0 389.7 0 375.8 0C362 0 348 0 334 0C320 0 306 0 292 0C278 0 264 0 250.2 0C236.3 0 222.7 0 208.8 0C195 0 181 0 167 0C153 0 139 0 125 0C111 0 97 0 83.2 0C69.3 0 55.7 0 41.8 0C28 0 14 0 7 0L0 0Z" fill="#e3ffe0"></path></svg>