<svg id="visual" viewBox="0 0 960 200" width="960" height="200" xmlns="http://www.w3.org/2000/svg" xmlns:xlink="http://www.w3.org/1999/xlink" version="1.1"><rect x="0" y="0" width="960" height="200" fill="#000000"></rect><path d="M0 124L7 121.7C14 119.3 28 114.7 41.8 115C55.7 115.3 69.3 120.7 83.2 121.2C97 121.7 111 117.3 125 117.2C139 117 153 121 167 120C181 119 195 113 208.8 112.7C222.7 112.3 236.3 117.7 250.2 119.3C264 121 278 119 292 119C306 119 320 121 334 119.3C348 117.7 362 112.3 375.8 111.7C389.7 111 403.3 115 417.2 116.8C431 118.7 445 118.3 459 118.2C473 118 487 118 501 116.3C515 114.7 529 111.3 542.8 111C556.7 110.7 570.3 113.3 584.2 113.3C598 113.3 612 110.7 626 112.8C640 115 654 122 668 123.8C682 125.7 696 122.3 709.8 119.5C723.7 116.7 737.3 114.3 751.2 117C765 119.7 779 127.3 793 131.3C807 135.3 821 135.7 835 130.8C849 126 863 116 876.8 114.3C890.7 112.7 904.3 119.3 918.2 124.2C932 129 946 132 953 133.5L960 135L960 0L953 0C946 0 932 0 918.2 0C904.3 0 890.7 0 876.8 0C863 0 849 0 835 0C821 0 807 0 793 0C779 0 765 0 751.2 0C737.3 0 723.7 0 709.8 0C696 0 682 0 668 0C654 0 640 0 626 0C612 0 598 0 584.2 0C570.3 0 556.7 0 542.8 0C529 0 515 0 501 0C487 0 473 0 459 0C445 0 431 0 417.2 0C403.3 0 389.7 0 375.8 0C362 0 348 0 334 0C320 0 306 0 292 0C278 0 264 0 250.2 0C236.3 0 222.7 0 208.8 0C195 0 181 0 167 0C153 0 139 0 125 0C111 0 97 0 83.2 0C69.3 0 55.7 0 41.8 0C28 0 14 0 7 0L0 0Z" fill="#00070e"></path><path d="M0 128L7 124C14 120 28 112 41.8 110.2C55.7 108.3 69.3 112.7 83.2 111.3C97 110 111 103 125 100.8C139 98.7 153 101.3 167 101.7C181 102 195 100 208.8 103C222.7 106 236.3 114 250.2 114.5C264 115 278 108 292 109C306 110 320 119 334 121.8C348 124.7 362 121.3 375.8 118.8C389.7 116.3 403.3 114.7 417.2 115C431 115.3 445 117.7 459 115.5C473 113.3 487 106.7 501 103.7C515 100.7 529 101.3 542.8 102.8C556.7 104.3 570.3 106.7 584.2 106.7C598 106.7 612 104.3 626 103.3C640 102.3 654 102.7 668 103.8C682 105 696 107 709.8 106.7C723.7 106.3 737.3 103.7 751.2 102.3C765 101 779 101 793 102.8C807 104.7 821 108.3 835 111.3C849 114.3 863 116.7 876.8 117.8C890.7 119 904.3 119 918.2 115.8C932 112.7 946 106.3 953 103.2L960 100L960 0L953 0C946 0 932 0 918.2 0C904.3 0 890.7 0 876.8 0C863 0 849 0 835 0C821 0 807 0 793 0C779 0 765 0 751.2 0C737.3 0 723.7 0 709.8 0C696 0 682 0 668 0C654 0 640 0 626 0C612 0 598 0 584.2 0C570.3 0 556.7 0 542.8 0C529 0 515 0 501 0C487 0 473 0 459 0C445 0 431 0 417.2 0C403.3 0 389.7 0 375.8 0C362 0 348 0 334 0C320 0 306 0 292 0C278 0 264 0 250.2 0C236.3 0 222.7 0 208.8 0C195 0 181 0 167 0C153 0 139 0 125 0C111 0 97 0 83.2 0C69.3 0 55.7 0 41.8 0C28 0 14 0 7 0L0 0Z" fill="#151d22"></path><path d="M0 111L7 112C14 113 28 115 41.8 114.7C55.7 114.3 69.3 111.7 83.2 109.8C97 108 111 107 125 106.3C139 105.7 153 105.3 167 106.2C181 107 195 109 208.8 108.5C222.7 108 236.3 105 250.2 104.3C264 103.7 278 105.3 292 105.3C306 105.3 320 103.7 334 103.2C348 102.7 362 103.3 375.8 104.8C389.7 106.3 403.3 108.7 417.2 110C431 111.3 445 111.7 459 107.8C473 104 487 96 501 96.3C515 96.7 529 105.3 542.8 107.7C556.7 110 570.3 106 584.2 105.8C598 105.7 612 109.3 626 108.5C640 107.7 654 102.3 668 99.8C682 97.3 696 97.7 709.8 97.8C723.7 98 737.3 98 751.2 101.2C765 104.3 779 110.7 793 113.7C807 116.7 821 116.3 835 116.2C849 116 863 116 876.8 114.7C890.7 113.3 904.3 110.7 918.2 106.7C932 102.7 946 97.3 953 94.7L960 92L960 0L953 0C946 0 932 0 918.2 0C904.3 0 890.7 0 876.8 0C863 0 849 0 835 0C821 0 807 0 793 0C779 0 765 0 751.2 0C737.3 0 723.7 0 709.8 0C696 0 682 0 668 0C654 0 640 0 626 0C612 0 598 0 584.2 0C570.3 0 556.7 0 542.8 0C529 0 515 0 501 0C487 0 473 0 459 0C445 0 431 0 417.2 0C403.3 0 389.7 0 375.8 0C362 0 348 0 334 0C320 0 306 0 292 0C278 0 264 0 250.2 0C236.3 0 222.7 0 208.8 0C195 0 181 0 167 0C153 0 139 0 125 0C111 0 97 0 83.2 0C69.3 0 55.7 0 41.8 0C28 0 14 0 7 0L0 0Z" fill="#243036"></path><path d="M0 93L7 91C14 89 28 85 41.8 82.3C55.7 79.7 69.3 78.3 83.2 81.3C97 84.3 111 91.7 125 91.8C139 92 153 85 167 86C181 87 195 96 208.8 99.7C222.7 103.3 236.3 101.7 250.2 99C264 96.3 278 92.7 292 93.5C306 94.3 320 99.7 334 101.5C348 103.3 362 101.7 375.8 100.5C389.7 99.3 403.3 98.7 417.2 99C431 99.3 445 100.7 459 100.5C473 100.3 487 98.7 501 95.8C515 93 529 89 542.8 85.7C556.7 82.3 570.3 79.7 584.2 79C598 78.3 612 79.7 626 82.7C640 85.7 654 90.3 668 94.5C682 98.7 696 102.3 709.8 100.8C723.7 99.3 737.3 92.7 751.2 88C765 83.3 779 80.7 793 83.5C807 86.3 821 94.7 835 98.8C849 103 863 103 876.8 99.5C890.7 96 904.3 89 918.2 87.8C932 86.7 946 91.3 953 93.7L960 96L960 0L953 0C946 0 932 0 918.2 0C904.3 0 890.7 0 876.8 0C863 0 849 0 835 0C821 0 807 0 793 0C779 0 765 0 751.2 0C737.3 0 723.7 0 709.8 0C696 0 682 0 668 0C654 0 640 0 626 0C612 0 598 0 584.2 0C570.3 0 556.7 0 542.8 0C529 0 515 0 501 0C487 0 473 0 459 0C445 0 431 0 417.2 0C403.3 0 389.7 0 375.8 0C362 0 348 0 334 0C320 0 306 0 292 0C278 0 264 0 250.2 0C236.3 0 222.7 0 208.8 0C195 0 181 0 167 0C153 0 139 0 125 0C111 0 97 0 83.2 0C69.3 0 55.7 0 41.8 0C28 0 14 0 7 0L0 0Z" fill="#33444a"></path><path d="M0 76L7 74.7C14 73.3 28 70.7 41.8 72.7C55.7 74.7 69.3 81.3 83.2 85.2C97 89 111 90 125 89.3C139 88.7 153 86.3 167 83.5C181 80.7 195 77.3 208.8 77.3C222.7 77.3 236.3 80.7 250.2 82.3C264 84 278 84 292 84.8C306 85.7 320 87.3 334 88.2C348 89 362 89 375.8 88.8C389.7 88.7 403.3 88.3 417.2 86C431 83.7 445 79.3 459 76.5C473 73.7 487 72.3 501 74.3C515 76.3 529 81.7 542.8 84.5C556.7 87.3 570.3 87.7 584.2 87.7C598 87.7 612 87.3 626 83.8C640 80.3 654 73.7 668 72.8C682 72 696 77 709.8 79.5C723.7 82 737.3 82 751.2 81.8C765 81.7 779 81.3 793 80.7C807 80 821 79 835 77.7C849 76.3 863 74.7 876.8 73.7C890.7 72.7 904.3 72.3 918.2 74C932 75.7 946 79.3 953 81.2L960 83L960 0L953 0C946 0 932 0 918.2 0C904.3 0 890.7 0 876.8 0C863 0 849 0 835 0C821 0 807 0 793 0C779 0 765 0 751.2 0C737.3 0 723.7 0 709.8 0C696 0 682 0 668 0C654 0 640 0 626 0C612 0 598 0 584.2 0C570.3 0 556.7 0 542.8 0C529 0 515 0 501 0C487 0 473 0 459 0C445 0 431 0 417.2 0C403.3 0 389.7 0 375.8 0C362 0 348 0 334 0C320 0 306 0 292 0C278 0 264 0 250.2 0C236.3 0 222.7 0 208.8 0C195 0 181 0 167 0C153 0 139 0 125 0C111 0 97 0 83.2 0C69.3 0 55.7 0 41.8 0C28 0 14 0 7 0L0 0Z" fill="#435a5e"></path><path d="M0 82L7 80.7C14 79.3 28 76.7 41.8 75C55.7 73.3 69.3 72.7 83.2 70C97 67.3 111 62.7 125 64.3C139 66 153 74 167 78C181 82 195 82 208.8 81.5C222.7 81 236.3 80 250.2 78.7C264 77.3 278 75.7 292 74.3C306 73 320 72 334 72.5C348 73 362 75 375.8 74.5C389.7 74 403.3 71 417.2 68.5C431 66 445 64 459 62.5C473 61 487 60 501 63.7C515 67.3 529 75.7 542.8 79.3C556.7 83 570.3 82 584.2 78.7C598 75.3 612 69.7 626 69.3C640 69 654 74 668 73.8C682 73.7 696 68.3 709.8 65C723.7 61.7 737.3 60.3 751.2 59.8C765 59.3 779 59.7 793 63.5C807 67.3 821 74.7 835 75.2C849 75.7 863 69.3 876.8 67.7C890.7 66 904.3 69 918.2 70.2C932 71.3 946 70.7 953 70.3L960 70L960 0L953 0C946 0 932 0 918.2 0C904.3 0 890.7 0 876.8 0C863 0 849 0 835 0C821 0 807 0 793 0C779 0 765 0 751.2 0C737.3 0 723.7 0 709.8 0C696 0 682 0 668 0C654 0 640 0 626 0C612 0 598 0 584.2 0C570.3 0 556.7 0 542.8 0C529 0 515 0 501 0C487 0 473 0 459 0C445 0 431 0 417.2 0C403.3 0 389.7 0 375.8 0C362 0 348 0 334 0C320 0 306 0 292 0C278 0 264 0 250.2 0C236.3 0 222.7 0 208.8 0C195 0 181 0 167 0C153 0 139 0 125 0C111 0 97 0 83.2 0C69.3 0 55.7 0 41.8 0C28 0 14 0 7 0L0 0Z" fill="#547071"></path><path d="M0 50L7 52.8C14 55.7 28 61.3 41.8 65C55.7 68.7 69.3 70.3 83.2 69.2C97 68 111 64 125 61.3C139 58.7 153 57.3 167 56.2C181 55 195 54 208.8 53C222.7 52 236.3 51 250.2 54.5C264 58 278 66 292 67.8C306 69.7 320 65.3 334 61C348 56.7 362 52.3 375.8 52.5C389.7 52.7 403.3 57.3 417.2 60.3C431 63.3 445 64.7 459 62.8C473 61 487 56 501 56.7C515 57.3 529 63.7 542.8 64.8C556.7 66 570.3 62 584.2 61.8C598 61.7 612 65.3 626 63.7C640 62 654 55 668 53.7C682 52.3 696 56.7 709.8 58C723.7 59.3 737.3 57.7 751.2 59.2C765 60.7 779 65.3 793 64.3C807 63.3 821 56.7 835 56C849 55.3 863 60.7 876.8 62.5C890.7 64.3 904.3 62.7 918.2 60.2C932 57.7 946 54.3 953 52.7L960 51L960 0L953 0C946 0 932 0 918.2 0C904.3 0 890.7 0 876.8 0C863 0 849 0 835 0C821 0 807 0 793 0C779 0 765 0 751.2 0C737.3 0 723.7 0 709.8 0C696 0 682 0 668 0C654 0 640 0 626 0C612 0 598 0 584.2 0C570.3 0 556.7 0 542.8 0C529 0 515 0 501 0C487 0 473 0 459 0C445 0 431 0 417.2 0C403.3 0 389.7 0 375.8 0C362 0 348 0 334 0C320 0 306 0 292 0C278 0 264 0 250.2 0C236.3 0 222.7 0 208.8 0C195 0 181 0 167 0C153 0 139 0 125 0C111 0 97 0 83.2 0C69.3 0 55.7 0 41.8 0C28 0 14 0 7 0L0 0Z" fill="#678785"></path><path d="M0 40L7 40C14 40 28 40 41.8 43.8C55.7 47.7 69.3 55.3 83.2 58.2C97 61 111 59 125 55C139 51 153 45 167 45.8C181 46.7 195 54.3 208.8 57.5C222.7 60.7 236.3 59.3 250.2 58.5C264 57.7 278 57.3 292 54.5C306 51.7 320 46.3 334 45.3C348 44.3 362 47.7 375.8 51C389.7 54.3 403.3 57.7 417.2 59.7C431 61.7 445 62.3 459 62.2C473 62 487 61 501 57.5C515 54 529 48 542.8 48C556.7 48 570.3 54 584.2 56C598 58 612 56 626 55.2C640 54.3 654 54.7 668 54.2C682 53.7 696 52.3 709.8 50.7C723.7 49 737.3 47 751.2 44.8C765 42.7 779 40.3 793 40.5C807 40.7 821 43.3 835 45.2C849 47 863 48 876.8 48C890.7 48 904.3 47 918.2 49C932 51 946 56 953 58.5L960 61L960 0L953 0C946 0 932 0 918.2 0C904.3 0 890.7 0 876.8 0C863 0 849 0 835 0C821 0 807 0 793 0C779 0 765 0 751.2 0C737.3 0 723.7 0 709.8 0C696 0 682 0 668 0C654 0 640 0 626 0C612 0 598 0 584.2 0C570.3 0 556.7 0 542.8 0C529 0 515 0 501 0C487 0 473 0 459 0C445 0 431 0 417.2 0C403.3 0 389.7 0 375.8 0C362 0 348 0 334 0C320 0 306 0 292 0C278 0 264 0 250.2 0C236.3 0 222.7 0 208.8 0C195 0 181 0 167 0C153 0 139 0 125 0C111 0 97 0 83.2 0C69.3 0 55.7 0 41.8 0C28 0 14 0 7 0L0 0Z" fill="#7b9e98"></path><path d="M0 30L7 32.7C14 35.3 28 40.7 41.8 43.3C55.7 46 69.3 46 83.2 43.7C97 41.3 111 36.7 125 37.2C139 37.7 153 43.3 167 43.2C181 43 195 37 208.8 36.2C222.7 35.3 236.3 39.7 250.2 41.3C264 43 278 42 292 41.8C306 41.7 320 42.3 334 41.3C348 40.3 362 37.7 375.8 35.5C389.7 33.3 403.3 31.7 417.2 31C431 30.3 445 30.7 459 31.3C473 32 487 33 501 36.3C515 39.7 529 45.3 542.8 46.3C556.7 47.3 570.3 43.7 584.2 40.7C598 37.7 612 35.3 626 36.3C640 37.3 654 41.7 668 42.5C682 43.3 696 40.7 709.8 41.2C723.7 41.7 737.3 45.3 751.2 44.8C765 44.3 779 39.7 793 39.7C807 39.7 821 44.3 835 47C849 49.7 863 50.3 876.8 50.2C890.7 50 904.3 49 918.2 48C932 47 946 46 953 45.5L960 45L960 0L953 0C946 0 932 0 918.2 0C904.3 0 890.7 0 876.8 0C863 0 849 0 835 0C821 0 807 0 793 0C779 0 765 0 751.2 0C737.3 0 723.7 0 709.8 0C696 0 682 0 668 0C654 0 640 0 626 0C612 0 598 0 584.2 0C570.3 0 556.7 0 542.8 0C529 0 515 0 501 0C487 0 473 0 459 0C445 0 431 0 417.2 0C403.3 0 389.7 0 375.8 0C362 0 348 0 334 0C320 0 306 0 292 0C278 0 264 0 250.2 0C236.3 0 222.7 0 208.8 0C195 0 181 0 167 0C153 0 139 0 125 0C111 0 97 0 83.2 0C69.3 0 55.7 0 41.8 0C28 0 14 0 7 0L0 0Z" fill="#92b6aa"></path><path d="M0 30L7 29.8C14 29.7 28 29.3 41.8 31.3C55.7 33.3 69.3 37.7 83.2 38.2C97 38.7 111 35.3 125 33.3C139 31.3 153 30.7 167 28.7C181 26.7 195 23.3 208.8 21.7C222.7 20 236.3 20 250.2 23.2C264 26.3 278 32.7 292 34.3C306 36 320 33 334 31.5C348 30 362 30 375.8 30.3C389.7 30.7 403.3 31.3 417.2 31.5C431 31.7 445 31.3 459 31.7C473 32 487 33 501 31.8C515 30.7 529 27.3 542.8 25.8C556.7 24.3 570.3 24.7 584.2 25C598 25.3 612 25.7 626 25.8C640 26 654 26 668 28.2C682 30.3 696 34.7 709.8 34.5C723.7 34.3 737.3 29.7 751.2 27.3C765 25 779 25 793 26.5C807 28 821 31 835 31.5C849 32 863 30 876.8 29.3C890.7 28.7 904.3 29.3 918.2 30.5C932 31.7 946 33.3 953 34.2L960 35L960 0L953 0C946 0 932 0 918.2 0C904.3 0 890.7 0 876.8 0C863 0 849 0 835 0C821 0 807 0 793 0C779 0 765 0 751.2 0C737.3 0 723.7 0 709.8 0C696 0 682 0 668 0C654 0 640 0 626 0C612 0 598 0 584.2 0C570.3 0 556.7 0 542.8 0C529 0 515 0 501 0C487 0 473 0 459 0C445 0 431 0 417.2 0C403.3 0 389.7 0 375.8 0C362 0 348 0 334 0C320 0 306 0 292 0C278 0 264 0 250.2 0C236.3 0 222.7 0 208.8 0C195 0 181 0 167 0C153 0 139 0 125 0C111 0 97 0 83.2 0C69.3 0 55.7 0 41.8 0C28 0 14 0 7 0L0 0Z" fill="#abcebc"></path><path d="M0 15L7 14C14 13 28 11 41.8 10.5C55.7 10 69.3 11 83.2 14.7C97 18.3 111 24.7 125 25.2C139 25.7 153 20.3 167 20C181 19.7 195 24.3 208.8 25.8C222.7 27.3 236.3 25.7 250.2 25C264 24.3 278 24.7 292 23.2C306 21.7 320 18.3 334 18.8C348 19.3 362 23.7 375.8 24.7C389.7 25.7 403.3 23.3 417.2 20.8C431 18.3 445 15.7 459 15.2C473 14.7 487 16.3 501 18C515 19.7 529 21.3 542.8 21C556.7 20.7 570.3 18.3 584.2 16.8C598 15.3 612 14.7 626 17.2C640 19.7 654 25.3 668 24.5C682 23.7 696 16.3 709.8 12.8C723.7 9.3 737.3 9.7 751.2 10.8C765 12 779 14 793 16.2C807 18.3 821 20.7 835 21.5C849 22.3 863 21.7 876.8 22.8C890.7 24 904.3 27 918.2 27.8C932 28.7 946 27.3 953 26.7L960 26L960 0L953 0C946 0 932 0 918.2 0C904.3 0 890.7 0 876.8 0C863 0 849 0 835 0C821 0 807 0 793 0C779 0 765 0 751.2 0C737.3 0 723.7 0 709.8 0C696 0 682 0 668 0C654 0 640 0 626 0C612 0 598 0 584.2 0C570.3 0 556.7 0 542.8 0C529 0 515 0 501 0C487 0 473 0 459 0C445 0 431 0 417.2 0C403.3 0 389.7 0 375.8 0C362 0 348 0 334 0C320 0 306 0 292 0C278 0 264 0 250.2 0C236.3 0 222.7 0 208.8 0C195 0 181 0 167 0C153 0 139 0 125 0C111 0 97 0 83.2 0C69.3 0 55.7 0 41.8 0C28 0 14 0 7 0L0 0Z" fill="#c6e7ce"></path><path d="M0 13L7 12.7C14 12.3 28 11.7 41.8 9.5C55.7 7.3 69.3 3.7 83.2 4.5C97 5.3 111 10.7 125 11C139 11.3 153 6.7 167 6.2C181 5.7 195 9.3 208.8 9.3C222.7 9.3 236.3 5.7 250.2 6.3C264 7 278 12 292 14.7C306 17.3 320 17.7 334 15.5C348 13.3 362 8.7 375.8 5.7C389.7 2.7 403.3 1.3 417.2 2.8C431 4.3 445 8.7 459 9.3C473 10 487 7 501 6.2C515 5.3 529 6.7 542.8 7.5C556.7 8.3 570.3 8.7 584.2 10.2C598 11.7 612 14.3 626 16C640 17.7 654 18.3 668 15.5C682 12.7 696 6.3 709.8 4.8C723.7 3.3 737.3 6.7 751.2 8.2C765 9.7 779 9.3 793 9.2C807 9 821 9 835 8.8C849 8.7 863 8.3 876.8 9.3C890.7 10.3 904.3 12.7 918.2 13.2C932 13.7 946 12.3 953 11.7L960 11L960 0L953 0C946 0 932 0 918.2 0C904.3 0 890.7 0 876.8 0C863 0 849 0 835 0C821 0 807 0 793 0C779 0 765 0 751.2 0C737.3 0 723.7 0 709.8 0C696 0 682 0 668 0C654 0 640 0 626 0C612 0 598 0 584.2 0C570.3 0 556.7 0 542.8 0C529 0 515 0 501 0C487 0 473 0 459 0C445 0 431 0 417.2 0C403.3 0 389.7 0 375.8 0C362 0 348 0 334 0C320 0 306 0 292 0C278 0 264 0 250.2 0C236.3 0 222.7 0 208.8 0C195 0 181 0 167 0C153 0 139 0 125 0C111 0 97 0 83.2 0C69.3 0 55.7 0 41.8 0C28 0 14 0 7 0L0 0Z" fill="#e3ffe0"></path></svg>