<svg id="visual" viewBox="0 0 960 540" width="960" height="540" xmlns="http://www.w3.org/2000/svg" xmlns:xlink="http://www.w3.org/1999/xlink" version="1.1"><rect x="0" y="0" width="960" height="540" fill="#000000"></rect><path d="M0 138L7 141.3C14 144.7 28 151.3 41.8 153.7C55.7 156 69.3 154 83.2 153.7C97 153.3 111 154.7 125 155.3C139 156 153 156 167 156.2C181 156.3 195 156.7 208.8 153.5C222.7 150.3 236.3 143.7 250.2 143.2C264 142.7 278 148.3 292 149.5C306 150.7 320 147.3 334 148C348 148.7 362 153.3 375.8 150.7C389.7 148 403.3 138 417.2 135.3C431 132.7 445 137.3 459 141.7C473 146 487 150 501 147.7C515 145.3 529 136.7 542.8 133.7C556.7 130.7 570.3 133.3 584.2 137.5C598 141.7 612 147.3 626 150.8C640 154.3 654 155.7 668 151.8C682 148 696 139 709.8 134.2C723.7 129.3 737.3 128.7 751.2 130.5C765 132.3 779 136.7 793 140.5C807 144.3 821 147.7 835 145.7C849 143.7 863 136.3 876.8 137.2C890.7 138 904.3 147 918.2 150.2C932 153.3 946 150.7 953 149.3L960 148L960 0L953 0C946 0 932 0 918.2 0C904.3 0 890.7 0 876.8 0C863 0 849 0 835 0C821 0 807 0 793 0C779 0 765 0 751.2 0C737.3 0 723.7 0 709.8 0C696 0 682 0 668 0C654 0 640 0 626 0C612 0 598 0 584.2 0C570.3 0 556.7 0 542.8 0C529 0 515 0 501 0C487 0 473 0 459 0C445 0 431 0 417.2 0C403.3 0 389.7 0 375.8 0C362 0 348 0 334 0C320 0 306 0 292 0C278 0 264 0 250.2 0C236.3 0 222.7 0 208.8 0C195 0 181 0 167 0C153 0 139 0 125 0C111 0 97 0 83.2 0C69.3 0 55.7 0 41.8 0C28 0 14 0 7 0L0 0Z" fill="#00070e"></path><path d="M0 120L7 121.5C14 123 28 126 41.8 129.2C55.7 132.3 69.3 135.7 83.2 138.5C97 141.3 111 143.7 125 143.3C139 143 153 140 167 135.8C181 131.7 195 126.3 208.8 122.2C222.7 118 236.3 115 250.2 115.8C264 116.7 278 121.3 292 124.8C306 128.3 320 130.7 334 128.3C348 126 362 119 375.8 121.3C389.7 123.7 403.3 135.3 417.2 140.2C431 145 445 143 459 142.3C473 141.7 487 142.3 501 142C515 141.7 529 140.3 542.8 139.5C556.7 138.7 570.3 138.3 584.2 135.2C598 132 612 126 626 124.8C640 123.7 654 127.3 668 126.3C682 125.3 696 119.7 709.8 117C723.7 114.3 737.3 114.7 751.2 115.5C765 116.3 779 117.7 793 121C807 124.3 821 129.7 835 129.7C849 129.7 863 124.3 876.8 122.7C890.7 121 904.3 123 918.2 127.7C932 132.3 946 139.7 953 143.3L960 147L960 0L953 0C946 0 932 0 918.2 0C904.3 0 890.7 0 876.8 0C863 0 849 0 835 0C821 0 807 0 793 0C779 0 765 0 751.2 0C737.3 0 723.7 0 709.8 0C696 0 682 0 668 0C654 0 640 0 626 0C612 0 598 0 584.2 0C570.3 0 556.7 0 542.8 0C529 0 515 0 501 0C487 0 473 0 459 0C445 0 431 0 417.2 0C403.3 0 389.7 0 375.8 0C362 0 348 0 334 0C320 0 306 0 292 0C278 0 264 0 250.2 0C236.3 0 222.7 0 208.8 0C195 0 181 0 167 0C153 0 139 0 125 0C111 0 97 0 83.2 0C69.3 0 55.7 0 41.8 0C28 0 14 0 7 0L0 0Z" fill="#151d22"></path><path d="M0 103L7 104.3C14 105.7 28 108.3 41.8 112.5C55.7 116.7 69.3 122.3 83.2 124.8C97 127.3 111 126.7 125 122.7C139 118.7 153 111.3 167 112.3C181 113.3 195 122.7 208.8 123.8C222.7 125 236.3 118 250.2 114C264 110 278 109 292 107.8C306 106.7 320 105.3 334 109C348 112.7 362 121.3 375.8 121.3C389.7 121.3 403.3 112.7 417.2 107.8C431 103 445 102 459 106.7C473 111.3 487 121.7 501 126.5C515 131.3 529 130.7 542.8 125.7C556.7 120.7 570.3 111.3 584.2 106.7C598 102 612 102 626 102.8C640 103.7 654 105.3 668 105.7C682 106 696 105 709.8 109.8C723.7 114.7 737.3 125.3 751.2 126.7C765 128 779 120 793 117.3C807 114.7 821 117.3 835 117C849 116.7 863 113.3 876.8 114.2C890.7 115 904.3 120 918.2 121.8C932 123.7 946 122.3 953 121.7L960 121L960 0L953 0C946 0 932 0 918.2 0C904.3 0 890.7 0 876.8 0C863 0 849 0 835 0C821 0 807 0 793 0C779 0 765 0 751.2 0C737.3 0 723.7 0 709.8 0C696 0 682 0 668 0C654 0 640 0 626 0C612 0 598 0 584.2 0C570.3 0 556.7 0 542.8 0C529 0 515 0 501 0C487 0 473 0 459 0C445 0 431 0 417.2 0C403.3 0 389.7 0 375.8 0C362 0 348 0 334 0C320 0 306 0 292 0C278 0 264 0 250.2 0C236.3 0 222.7 0 208.8 0C195 0 181 0 167 0C153 0 139 0 125 0C111 0 97 0 83.2 0C69.3 0 55.7 0 41.8 0C28 0 14 0 7 0L0 0Z" fill="#243036"></path><path d="M0 107L7 106.7C14 106.3 28 105.7 41.8 106.3C55.7 107 69.3 109 83.2 108.3C97 107.7 111 104.3 125 105.3C139 106.3 153 111.7 167 115C181 118.3 195 119.7 208.8 119.2C222.7 118.7 236.3 116.3 250.2 112C264 107.7 278 101.3 292 100.5C306 99.7 320 104.3 334 104.5C348 104.7 362 100.3 375.8 97C389.7 93.7 403.3 91.3 417.2 93.5C431 95.7 445 102.3 459 102.3C473 102.3 487 95.7 501 94.2C515 92.7 529 96.3 542.8 101.7C556.7 107 570.3 114 584.2 113.2C598 112.3 612 103.7 626 99C640 94.3 654 93.7 668 96.8C682 100 696 107 709.8 109C723.7 111 737.3 108 751.2 108.5C765 109 779 113 793 111C807 109 821 101 835 96.5C849 92 863 91 876.8 95.5C890.7 100 904.3 110 918.2 112.7C932 115.3 946 110.7 953 108.3L960 106L960 0L953 0C946 0 932 0 918.2 0C904.3 0 890.7 0 876.8 0C863 0 849 0 835 0C821 0 807 0 793 0C779 0 765 0 751.2 0C737.3 0 723.7 0 709.8 0C696 0 682 0 668 0C654 0 640 0 626 0C612 0 598 0 584.2 0C570.3 0 556.7 0 542.8 0C529 0 515 0 501 0C487 0 473 0 459 0C445 0 431 0 417.2 0C403.3 0 389.7 0 375.8 0C362 0 348 0 334 0C320 0 306 0 292 0C278 0 264 0 250.2 0C236.3 0 222.7 0 208.8 0C195 0 181 0 167 0C153 0 139 0 125 0C111 0 97 0 83.2 0C69.3 0 55.7 0 41.8 0C28 0 14 0 7 0L0 0Z" fill="#33444a"></path><path d="M0 84L7 88.2C14 92.3 28 100.7 41.8 99.8C55.7 99 69.3 89 83.2 85.8C97 82.7 111 86.3 125 90.8C139 95.3 153 100.7 167 101.3C181 102 195 98 208.8 93.3C222.7 88.7 236.3 83.3 250.2 82.8C264 82.3 278 86.7 292 92C306 97.3 320 103.7 334 101.8C348 100 362 90 375.8 86.7C389.7 83.3 403.3 86.7 417.2 90.7C431 94.7 445 99.3 459 100.3C473 101.3 487 98.7 501 99.3C515 100 529 104 542.8 105.5C556.7 107 570.3 106 584.2 103C598 100 612 95 626 93.3C640 91.7 654 93.3 668 95C682 96.7 696 98.3 709.8 98.7C723.7 99 737.3 98 751.2 95.8C765 93.7 779 90.3 793 91.7C807 93 821 99 835 101.5C849 104 863 103 876.8 99.8C890.7 96.7 904.3 91.3 918.2 89.5C932 87.7 946 89.3 953 90.2L960 91L960 0L953 0C946 0 932 0 918.2 0C904.3 0 890.7 0 876.8 0C863 0 849 0 835 0C821 0 807 0 793 0C779 0 765 0 751.2 0C737.3 0 723.7 0 709.8 0C696 0 682 0 668 0C654 0 640 0 626 0C612 0 598 0 584.2 0C570.3 0 556.7 0 542.8 0C529 0 515 0 501 0C487 0 473 0 459 0C445 0 431 0 417.2 0C403.3 0 389.7 0 375.8 0C362 0 348 0 334 0C320 0 306 0 292 0C278 0 264 0 250.2 0C236.3 0 222.7 0 208.8 0C195 0 181 0 167 0C153 0 139 0 125 0C111 0 97 0 83.2 0C69.3 0 55.7 0 41.8 0C28 0 14 0 7 0L0 0Z" fill="#435a5e"></path><path d="M0 95L7 93.2C14 91.3 28 87.7 41.8 87.3C55.7 87 69.3 90 83.2 90.5C97 91 111 89 125 89.3C139 89.7 153 92.3 167 90C181 87.7 195 80.3 208.8 76.2C222.7 72 236.3 71 250.2 72.5C264 74 278 78 292 81.7C306 85.3 320 88.7 334 87.7C348 86.7 362 81.3 375.8 77C389.7 72.7 403.3 69.3 417.2 68.8C431 68.3 445 70.7 459 71.3C473 72 487 71 501 73.7C515 76.3 529 82.7 542.8 86C556.7 89.3 570.3 89.7 584.2 88.2C598 86.7 612 83.3 626 81.8C640 80.3 654 80.7 668 81.2C682 81.7 696 82.3 709.8 85.2C723.7 88 737.3 93 751.2 94.7C765 96.3 779 94.7 793 92.5C807 90.3 821 87.7 835 86.8C849 86 863 87 876.8 84.5C890.7 82 904.3 76 918.2 74.5C932 73 946 76 953 77.5L960 79L960 0L953 0C946 0 932 0 918.2 0C904.3 0 890.7 0 876.8 0C863 0 849 0 835 0C821 0 807 0 793 0C779 0 765 0 751.2 0C737.3 0 723.7 0 709.8 0C696 0 682 0 668 0C654 0 640 0 626 0C612 0 598 0 584.2 0C570.3 0 556.7 0 542.8 0C529 0 515 0 501 0C487 0 473 0 459 0C445 0 431 0 417.2 0C403.3 0 389.7 0 375.8 0C362 0 348 0 334 0C320 0 306 0 292 0C278 0 264 0 250.2 0C236.3 0 222.7 0 208.8 0C195 0 181 0 167 0C153 0 139 0 125 0C111 0 97 0 83.2 0C69.3 0 55.7 0 41.8 0C28 0 14 0 7 0L0 0Z" fill="#547071"></path><path d="M0 64L7 63.7C14 63.3 28 62.7 41.8 63.5C55.7 64.3 69.3 66.7 83.2 65.8C97 65 111 61 125 59.8C139 58.7 153 60.3 167 61.8C181 63.3 195 64.7 208.8 66.3C222.7 68 236.3 70 250.2 69C264 68 278 64 292 64.8C306 65.7 320 71.3 334 71.5C348 71.7 362 66.3 375.8 62.8C389.7 59.3 403.3 57.7 417.2 59.8C431 62 445 68 459 70.3C473 72.7 487 71.3 501 71.5C515 71.7 529 73.3 542.8 75.2C556.7 77 570.3 79 584.2 80.5C598 82 612 83 626 83.5C640 84 654 84 668 80.3C682 76.7 696 69.3 709.8 64.8C723.7 60.3 737.3 58.7 751.2 61C765 63.3 779 69.7 793 70.8C807 72 821 68 835 64.7C849 61.3 863 58.7 876.8 58.3C890.7 58 904.3 60 918.2 62.7C932 65.3 946 68.7 953 70.3L960 72L960 0L953 0C946 0 932 0 918.2 0C904.3 0 890.7 0 876.8 0C863 0 849 0 835 0C821 0 807 0 793 0C779 0 765 0 751.2 0C737.3 0 723.7 0 709.8 0C696 0 682 0 668 0C654 0 640 0 626 0C612 0 598 0 584.2 0C570.3 0 556.7 0 542.8 0C529 0 515 0 501 0C487 0 473 0 459 0C445 0 431 0 417.2 0C403.3 0 389.7 0 375.8 0C362 0 348 0 334 0C320 0 306 0 292 0C278 0 264 0 250.2 0C236.3 0 222.7 0 208.8 0C195 0 181 0 167 0C153 0 139 0 125 0C111 0 97 0 83.2 0C69.3 0 55.7 0 41.8 0C28 0 14 0 7 0L0 0Z" fill="#678785"></path><path d="M0 71L7 67.7C14 64.3 28 57.7 41.8 58.2C55.7 58.7 69.3 66.3 83.2 67.3C97 68.3 111 62.7 125 59.3C139 56 153 55 167 53.7C181 52.3 195 50.7 208.8 51.5C222.7 52.3 236.3 55.7 250.2 59.2C264 62.7 278 66.3 292 65.5C306 64.7 320 59.3 334 59.5C348 59.7 362 65.3 375.8 65C389.7 64.7 403.3 58.3 417.2 56.3C431 54.3 445 56.7 459 58.3C473 60 487 61 501 59.5C515 58 529 54 542.8 55.7C556.7 57.3 570.3 64.7 584.2 65.3C598 66 612 60 626 60.2C640 60.3 654 66.7 668 69.2C682 71.7 696 70.3 709.8 70.2C723.7 70 737.3 71 751.2 71C765 71 779 70 793 68.5C807 67 821 65 835 64.2C849 63.3 863 63.7 876.8 62.5C890.7 61.3 904.3 58.7 918.2 59.5C932 60.3 946 64.7 953 66.8L960 69L960 0L953 0C946 0 932 0 918.2 0C904.3 0 890.7 0 876.8 0C863 0 849 0 835 0C821 0 807 0 793 0C779 0 765 0 751.2 0C737.3 0 723.7 0 709.8 0C696 0 682 0 668 0C654 0 640 0 626 0C612 0 598 0 584.2 0C570.3 0 556.7 0 542.8 0C529 0 515 0 501 0C487 0 473 0 459 0C445 0 431 0 417.2 0C403.3 0 389.7 0 375.8 0C362 0 348 0 334 0C320 0 306 0 292 0C278 0 264 0 250.2 0C236.3 0 222.7 0 208.8 0C195 0 181 0 167 0C153 0 139 0 125 0C111 0 97 0 83.2 0C69.3 0 55.7 0 41.8 0C28 0 14 0 7 0L0 0Z" fill="#7b9e98"></path><path d="M0 37L7 37C14 37 28 37 41.8 37.5C55.7 38 69.3 39 83.2 41.7C97 44.3 111 48.7 125 50C139 51.3 153 49.7 167 46.8C181 44 195 40 208.8 37.8C222.7 35.7 236.3 35.3 250.2 36.8C264 38.3 278 41.7 292 45.8C306 50 320 55 334 55.7C348 56.3 362 52.7 375.8 48.7C389.7 44.7 403.3 40.3 417.2 37.8C431 35.3 445 34.7 459 35.2C473 35.7 487 37.3 501 39.8C515 42.3 529 45.7 542.8 48.7C556.7 51.7 570.3 54.3 584.2 55.8C598 57.3 612 57.7 626 58.2C640 58.7 654 59.3 668 56.7C682 54 696 48 709.8 48.2C723.7 48.3 737.3 54.7 751.2 55.8C765 57 779 53 793 51C807 49 821 49 835 48.3C849 47.7 863 46.3 876.8 45.3C890.7 44.3 904.3 43.7 918.2 45C932 46.3 946 49.7 953 51.3L960 53L960 0L953 0C946 0 932 0 918.2 0C904.3 0 890.7 0 876.8 0C863 0 849 0 835 0C821 0 807 0 793 0C779 0 765 0 751.2 0C737.3 0 723.7 0 709.8 0C696 0 682 0 668 0C654 0 640 0 626 0C612 0 598 0 584.2 0C570.3 0 556.7 0 542.8 0C529 0 515 0 501 0C487 0 473 0 459 0C445 0 431 0 417.2 0C403.3 0 389.7 0 375.8 0C362 0 348 0 334 0C320 0 306 0 292 0C278 0 264 0 250.2 0C236.3 0 222.7 0 208.8 0C195 0 181 0 167 0C153 0 139 0 125 0C111 0 97 0 83.2 0C69.3 0 55.7 0 41.8 0C28 0 14 0 7 0L0 0Z" fill="#92b6aa"></path><path d="M0 42L7 40.2C14 38.3 28 34.7 41.8 35.7C55.7 36.7 69.3 42.3 83.2 41.8C97 41.3 111 34.7 125 33.5C139 32.3 153 36.7 167 37C181 37.3 195 33.7 208.8 34.2C222.7 34.7 236.3 39.3 250.2 38C264 36.7 278 29.3 292 29.2C306 29 320 36 334 37.5C348 39 362 35 375.8 31.8C389.7 28.7 403.3 26.3 417.2 25.2C431 24 445 24 459 25.2C473 26.3 487 28.7 501 30C515 31.3 529 31.7 542.8 32.5C556.7 33.3 570.3 34.7 584.2 33.2C598 31.7 612 27.3 626 27.7C640 28 654 33 668 34.7C682 36.3 696 34.7 709.8 35.3C723.7 36 737.3 39 751.2 40.7C765 42.3 779 42.7 793 39.7C807 36.7 821 30.3 835 31.2C849 32 863 40 876.8 42.3C890.7 44.7 904.3 41.3 918.2 40.2C932 39 946 40 953 40.5L960 41L960 0L953 0C946 0 932 0 918.2 0C904.3 0 890.7 0 876.8 0C863 0 849 0 835 0C821 0 807 0 793 0C779 0 765 0 751.2 0C737.3 0 723.7 0 709.8 0C696 0 682 0 668 0C654 0 640 0 626 0C612 0 598 0 584.2 0C570.3 0 556.7 0 542.8 0C529 0 515 0 501 0C487 0 473 0 459 0C445 0 431 0 417.2 0C403.3 0 389.7 0 375.8 0C362 0 348 0 334 0C320 0 306 0 292 0C278 0 264 0 250.2 0C236.3 0 222.7 0 208.8 0C195 0 181 0 167 0C153 0 139 0 125 0C111 0 97 0 83.2 0C69.3 0 55.7 0 41.8 0C28 0 14 0 7 0L0 0Z" fill="#abcebc"></path><path d="M0 18L7 17.7C14 17.3 28 16.7 41.8 19.3C55.7 22 69.3 28 83.2 29.5C97 31 111 28 125 25C139 22 153 19 167 18.8C181 18.7 195 21.3 208.8 20.3C222.7 19.3 236.3 14.7 250.2 13.3C264 12 278 14 292 15.5C306 17 320 18 334 18.7C348 19.3 362 19.7 375.8 20C389.7 20.3 403.3 20.7 417.2 21C431 21.3 445 21.7 459 20.2C473 18.7 487 15.3 501 16C515 16.7 529 21.3 542.8 24C556.7 26.7 570.3 27.3 584.2 25.5C598 23.7 612 19.3 626 18.7C640 18 654 21 668 23.7C682 26.3 696 28.7 709.8 27C723.7 25.3 737.3 19.7 751.2 18.8C765 18 779 22 793 24.7C807 27.3 821 28.7 835 27.3C849 26 863 22 876.8 20C890.7 18 904.3 18 918.2 17.7C932 17.3 946 16.7 953 16.3L960 16L960 0L953 0C946 0 932 0 918.2 0C904.3 0 890.7 0 876.8 0C863 0 849 0 835 0C821 0 807 0 793 0C779 0 765 0 751.2 0C737.3 0 723.7 0 709.8 0C696 0 682 0 668 0C654 0 640 0 626 0C612 0 598 0 584.2 0C570.3 0 556.7 0 542.8 0C529 0 515 0 501 0C487 0 473 0 459 0C445 0 431 0 417.2 0C403.3 0 389.7 0 375.8 0C362 0 348 0 334 0C320 0 306 0 292 0C278 0 264 0 250.2 0C236.3 0 222.7 0 208.8 0C195 0 181 0 167 0C153 0 139 0 125 0C111 0 97 0 83.2 0C69.3 0 55.7 0 41.8 0C28 0 14 0 7 0L0 0Z" fill="#c6e7ce"></path><path d="M0 12L7 11.8C14 11.7 28 11.3 41.8 10.3C55.7 9.3 69.3 7.7 83.2 8.5C97 9.3 111 12.7 125 13.5C139 14.3 153 12.7 167 12.3C181 12 195 13 208.8 14.7C222.7 16.3 236.3 18.7 250.2 18.5C264 18.3 278 15.7 292 13C306 10.3 320 7.7 334 6.7C348 5.7 362 6.3 375.8 8.3C389.7 10.3 403.3 13.7 417.2 15.8C431 18 445 19 459 17.7C473 16.3 487 12.7 501 10.2C515 7.7 529 6.3 542.8 8.7C556.7 11 570.3 17 584.2 16.3C598 15.7 612 8.3 626 6.8C640 5.3 654 9.7 668 9.8C682 10 696 6 709.8 7.2C723.7 8.3 737.3 14.7 751.2 15.3C765 16 779 11 793 8.5C807 6 821 6 835 8.2C849 10.3 863 14.7 876.8 15C890.7 15.3 904.3 11.7 918.2 11.2C932 10.7 946 13.3 953 14.7L960 16L960 0L953 0C946 0 932 0 918.2 0C904.3 0 890.7 0 876.8 0C863 0 849 0 835 0C821 0 807 0 793 0C779 0 765 0 751.2 0C737.3 0 723.7 0 709.8 0C696 0 682 0 668 0C654 0 640 0 626 0C612 0 598 0 584.2 0C570.3 0 556.7 0 542.8 0C529 0 515 0 501 0C487 0 473 0 459 0C445 0 431 0 417.2 0C403.3 0 389.7 0 375.8 0C362 0 348 0 334 0C320 0 306 0 292 0C278 0 264 0 250.2 0C236.3 0 222.7 0 208.8 0C195 0 181 0 167 0C153 0 139 0 125 0C111 0 97 0 83.2 0C69.3 0 55.7 0 41.8 0C28 0 14 0 7 0L0 0Z" fill="#e3ffe0"></path></svg>