<svg id="visual" viewBox="0 0 960 200" width="960" height="200" xmlns="http://www.w3.org/2000/svg" xmlns:xlink="http://www.w3.org/1999/xlink" version="1.1"><g>
  <path d="M0 99L7 98.7C14 98.3 28 97.7 41.8 100.8C55.7 104 69.3 111 83.2 110.5C97 110 111 102 125 101.5C139 101 153 108 167 111.3C181 114.7 195 114.3 208.8 110.3C222.7 106.3 236.3 98.7 250.2 96.3C264 94 278 97 292 97.7C306 98.3 320 96.7 334 98.3C348 100 362 105 375.8 107.8C389.7 110.7 403.3 111.3 417.2 109.8C431 108.3 445 104.7 459 105.3C473 106 487 111 501 109.3C515 107.7 529 99.3 542.8 99.7C556.7 100 570.3 109 584.2 109C598 109 612 100 626 97.5C640 95 654 99 668 100.2C682 101.3 696 99.7 709.8 101.2C723.7 102.7 737.3 107.3 751.2 109.2C765 111 779 110 793 106.7C807 103.3 821 97.7 835 98.2C849 98.7 863 105.3 876.8 108.3C890.7 111.3 904.3 110.7 918.2 110.5C932 110.3 946 110.7 953 110.8L960 111L960 0L953 0C946 0 932 0 918.2 0C904.3 0 890.7 0 876.8 0C863 0 849 0 835 0C821 0 807 0 793 0C779 0 765 0 751.2 0C737.3 0 723.7 0 709.8 0C696 0 682 0 668 0C654 0 640 0 626 0C612 0 598 0 584.2 0C570.3 0 556.7 0 542.8 0C529 0 515 0 501 0C487 0 473 0 459 0C445 0 431 0 417.2 0C403.3 0 389.7 0 375.8 0C362 0 348 0 334 0C320 0 306 0 292 0C278 0 264 0 250.2 0C236.3 0 222.7 0 208.8 0C195 0 181 0 167 0C153 0 139 0 125 0C111 0 97 0 83.2 0C69.3 0 55.7 0 41.8 0C28 0 14 0 7 0L0 0Z" fill="#00070e"></path><path d="M0 90L7 93C14 96 28 102 41.8 103.2C55.7 104.3 69.3 100.7 83.2 99C97 97.3 111 97.7 125 97.7C139 97.7 153 97.3 167 96.7C181 96 195 95 208.8 94.8C222.7 94.7 236.3 95.3 250.2 97.8C264 100.3 278 104.7 292 104.2C306 103.7 320 98.3 334 97.3C348 96.3 362 99.7 375.8 99C389.7 98.3 403.3 93.7 417.2 93.8C431 94 445 99 459 98.2C473 97.3 487 90.7 501 88C515 85.3 529 86.7 542.8 88C556.7 89.3 570.3 90.7 584.2 91.5C598 92.3 612 92.7 626 93C640 93.3 654 93.7 668 92.2C682 90.7 696 87.3 709.8 86.3C723.7 85.3 737.3 86.7 751.2 90C765 93.3 779 98.7 793 98.8C807 99 821 94 835 93C849 92 863 95 876.8 94C890.7 93 904.3 88 918.2 87.2C932 86.3 946 89.7 953 91.3L960 93L960 0L953 0C946 0 932 0 918.2 0C904.3 0 890.7 0 876.8 0C863 0 849 0 835 0C821 0 807 0 793 0C779 0 765 0 751.2 0C737.3 0 723.7 0 709.8 0C696 0 682 0 668 0C654 0 640 0 626 0C612 0 598 0 584.2 0C570.3 0 556.7 0 542.8 0C529 0 515 0 501 0C487 0 473 0 459 0C445 0 431 0 417.2 0C403.3 0 389.7 0 375.8 0C362 0 348 0 334 0C320 0 306 0 292 0C278 0 264 0 250.2 0C236.3 0 222.7 0 208.8 0C195 0 181 0 167 0C153 0 139 0 125 0C111 0 97 0 83.2 0C69.3 0 55.7 0 41.8 0C28 0 14 0 7 0L0 0Z" fill="#151d22"></path><path d="M0 85L7 87.5C14 90 28 95 41.8 94C55.7 93 69.3 86 83.2 85C97 84 111 89 125 91.7C139 94.3 153 94.7 167 94.5C181 94.3 195 93.7 208.8 93.3C222.7 93 236.3 93 250.2 92.7C264 92.3 278 91.7 292 92.2C306 92.7 320 94.3 334 94.5C348 94.7 362 93.3 375.8 92.3C389.7 91.3 403.3 90.7 417.2 88.7C431 86.7 445 83.3 459 83.5C473 83.7 487 87.3 501 87.5C515 87.7 529 84.3 542.8 85.2C556.7 86 570.3 91 584.2 90.2C598 89.3 612 82.7 626 81C640 79.3 654 82.7 668 84C682 85.3 696 84.7 709.8 84.7C723.7 84.7 737.3 85.3 751.2 85.7C765 86 779 86 793 84.8C807 83.7 821 81.3 835 81.8C849 82.3 863 85.7 876.8 85.5C890.7 85.3 904.3 81.7 918.2 81.8C932 82 946 86 953 88L960 90L960 0L953 0C946 0 932 0 918.2 0C904.3 0 890.7 0 876.8 0C863 0 849 0 835 0C821 0 807 0 793 0C779 0 765 0 751.2 0C737.3 0 723.7 0 709.8 0C696 0 682 0 668 0C654 0 640 0 626 0C612 0 598 0 584.2 0C570.3 0 556.7 0 542.8 0C529 0 515 0 501 0C487 0 473 0 459 0C445 0 431 0 417.2 0C403.3 0 389.7 0 375.8 0C362 0 348 0 334 0C320 0 306 0 292 0C278 0 264 0 250.2 0C236.3 0 222.7 0 208.8 0C195 0 181 0 167 0C153 0 139 0 125 0C111 0 97 0 83.2 0C69.3 0 55.7 0 41.8 0C28 0 14 0 7 0L0 0Z" fill="#243036"></path><path d="M0 76L7 77C14 78 28 80 41.8 79.3C55.7 78.7 69.3 75.3 83.2 75.5C97 75.7 111 79.3 125 78.5C139 77.7 153 72.3 167 72.2C181 72 195 77 208.8 81C222.7 85 236.3 88 250.2 86.8C264 85.7 278 80.3 292 78.3C306 76.3 320 77.7 334 78.5C348 79.3 362 79.7 375.8 78.3C389.7 77 403.3 74 417.2 73.5C431 73 445 75 459 75.3C473 75.7 487 74.3 501 76.7C515 79 529 85 542.8 85C556.7 85 570.3 79 584.2 77.5C598 76 612 79 626 81.5C640 84 654 86 668 86.2C682 86.3 696 84.7 709.8 82.7C723.7 80.7 737.3 78.3 751.2 78.2C765 78 779 80 793 80.7C807 81.3 821 80.7 835 78C849 75.3 863 70.7 876.8 69.8C890.7 69 904.3 72 918.2 74.7C932 77.3 946 79.7 953 80.8L960 82L960 0L953 0C946 0 932 0 918.2 0C904.3 0 890.7 0 876.8 0C863 0 849 0 835 0C821 0 807 0 793 0C779 0 765 0 751.2 0C737.3 0 723.7 0 709.8 0C696 0 682 0 668 0C654 0 640 0 626 0C612 0 598 0 584.2 0C570.3 0 556.7 0 542.8 0C529 0 515 0 501 0C487 0 473 0 459 0C445 0 431 0 417.2 0C403.3 0 389.7 0 375.8 0C362 0 348 0 334 0C320 0 306 0 292 0C278 0 264 0 250.2 0C236.3 0 222.7 0 208.8 0C195 0 181 0 167 0C153 0 139 0 125 0C111 0 97 0 83.2 0C69.3 0 55.7 0 41.8 0C28 0 14 0 7 0L0 0Z" fill="#33444a"></path><path d="M0 72L7 71.5C14 71 28 70 41.8 68.5C55.7 67 69.3 65 83.2 63.7C97 62.3 111 61.7 125 62.3C139 63 153 65 167 65.7C181 66.3 195 65.7 208.8 66.3C222.7 67 236.3 69 250.2 70.7C264 72.3 278 73.7 292 75.5C306 77.3 320 79.7 334 80.7C348 81.7 362 81.3 375.8 80.7C389.7 80 403.3 79 417.2 76.8C431 74.7 445 71.3 459 71.3C473 71.3 487 74.7 501 73C515 71.3 529 64.7 542.8 63.2C556.7 61.7 570.3 65.3 584.2 67C598 68.7 612 68.3 626 69.7C640 71 654 74 668 73.2C682 72.3 696 67.7 709.8 66.5C723.7 65.3 737.3 67.7 751.2 67.5C765 67.3 779 64.7 793 65.2C807 65.7 821 69.3 835 70.2C849 71 863 69 876.8 67.7C890.7 66.3 904.3 65.7 918.2 66.5C932 67.3 946 69.7 953 70.8L960 72L960 0L953 0C946 0 932 0 918.2 0C904.3 0 890.7 0 876.8 0C863 0 849 0 835 0C821 0 807 0 793 0C779 0 765 0 751.2 0C737.3 0 723.7 0 709.8 0C696 0 682 0 668 0C654 0 640 0 626 0C612 0 598 0 584.2 0C570.3 0 556.7 0 542.8 0C529 0 515 0 501 0C487 0 473 0 459 0C445 0 431 0 417.2 0C403.3 0 389.7 0 375.8 0C362 0 348 0 334 0C320 0 306 0 292 0C278 0 264 0 250.2 0C236.3 0 222.7 0 208.8 0C195 0 181 0 167 0C153 0 139 0 125 0C111 0 97 0 83.2 0C69.3 0 55.7 0 41.8 0C28 0 14 0 7 0L0 0Z" fill="#435a5e"></path><path d="M0 64L7 64.2C14 64.3 28 64.7 41.8 63.8C55.7 63 69.3 61 83.2 60C97 59 111 59 125 59.7C139 60.3 153 61.7 167 62.7C181 63.7 195 64.3 208.8 62.8C222.7 61.3 236.3 57.7 250.2 57.2C264 56.7 278 59.3 292 60.5C306 61.7 320 61.3 334 59.8C348 58.3 362 55.7 375.8 57C389.7 58.3 403.3 63.7 417.2 63.3C431 63 445 57 459 54.5C473 52 487 53 501 56.2C515 59.3 529 64.7 542.8 65.3C556.7 66 570.3 62 584.2 62.2C598 62.3 612 66.7 626 67.5C640 68.3 654 65.7 668 62.3C682 59 696 55 709.8 55.8C723.7 56.7 737.3 62.3 751.2 62C765 61.7 779 55.3 793 53.3C807 51.3 821 53.7 835 55.5C849 57.3 863 58.7 876.8 60.3C890.7 62 904.3 64 918.2 64.5C932 65 946 64 953 63.5L960 63L960 0L953 0C946 0 932 0 918.2 0C904.3 0 890.7 0 876.8 0C863 0 849 0 835 0C821 0 807 0 793 0C779 0 765 0 751.2 0C737.3 0 723.7 0 709.8 0C696 0 682 0 668 0C654 0 640 0 626 0C612 0 598 0 584.2 0C570.3 0 556.7 0 542.8 0C529 0 515 0 501 0C487 0 473 0 459 0C445 0 431 0 417.2 0C403.3 0 389.7 0 375.8 0C362 0 348 0 334 0C320 0 306 0 292 0C278 0 264 0 250.2 0C236.3 0 222.7 0 208.8 0C195 0 181 0 167 0C153 0 139 0 125 0C111 0 97 0 83.2 0C69.3 0 55.7 0 41.8 0C28 0 14 0 7 0L0 0Z" fill="#547071"></path><path d="M0 58L7 55.2C14 52.3 28 46.7 41.8 44.2C55.7 41.7 69.3 42.3 83.2 44C97 45.7 111 48.3 125 49.5C139 50.7 153 50.3 167 49.8C181 49.3 195 48.7 208.8 48.2C222.7 47.7 236.3 47.3 250.2 47C264 46.7 278 46.3 292 47C306 47.7 320 49.3 334 48.7C348 48 362 45 375.8 45.7C389.7 46.3 403.3 50.7 417.2 51.3C431 52 445 49 459 47C473 45 487 44 501 46.8C515 49.7 529 56.3 542.8 57.7C556.7 59 570.3 55 584.2 52.3C598 49.7 612 48.3 626 47C640 45.7 654 44.3 668 44.5C682 44.7 696 46.3 709.8 47.2C723.7 48 737.3 48 751.2 46.8C765 45.7 779 43.3 793 44C807 44.7 821 48.3 835 49.7C849 51 863 50 876.8 49.2C890.7 48.3 904.3 47.7 918.2 48C932 48.3 946 49.7 953 50.3L960 51L960 0L953 0C946 0 932 0 918.2 0C904.3 0 890.7 0 876.8 0C863 0 849 0 835 0C821 0 807 0 793 0C779 0 765 0 751.2 0C737.3 0 723.7 0 709.8 0C696 0 682 0 668 0C654 0 640 0 626 0C612 0 598 0 584.2 0C570.3 0 556.7 0 542.8 0C529 0 515 0 501 0C487 0 473 0 459 0C445 0 431 0 417.2 0C403.3 0 389.7 0 375.8 0C362 0 348 0 334 0C320 0 306 0 292 0C278 0 264 0 250.2 0C236.3 0 222.7 0 208.8 0C195 0 181 0 167 0C153 0 139 0 125 0C111 0 97 0 83.2 0C69.3 0 55.7 0 41.8 0C28 0 14 0 7 0L0 0Z" fill="#678785"></path><path d="M0 38L7 37.8C14 37.7 28 37.3 41.8 38.2C55.7 39 69.3 41 83.2 40.3C97 39.7 111 36.3 125 35.7C139 35 153 37 167 38.7C181 40.3 195 41.7 208.8 42.8C222.7 44 236.3 45 250.2 46.2C264 47.3 278 48.7 292 49.3C306 50 320 50 334 49.8C348 49.7 362 49.3 375.8 46.8C389.7 44.3 403.3 39.7 417.2 39.3C431 39 445 43 459 46.2C473 49.3 487 51.7 501 52.8C515 54 529 54 542.8 53C556.7 52 570.3 50 584.2 46.8C598 43.7 612 39.3 626 36.8C640 34.3 654 33.7 668 34.5C682 35.3 696 37.7 709.8 39.2C723.7 40.7 737.3 41.3 751.2 40.7C765 40 779 38 793 37.3C807 36.7 821 37.3 835 38.3C849 39.3 863 40.7 876.8 40.5C890.7 40.3 904.3 38.7 918.2 38.2C932 37.7 946 38.3 953 38.7L960 39L960 0L953 0C946 0 932 0 918.2 0C904.3 0 890.7 0 876.8 0C863 0 849 0 835 0C821 0 807 0 793 0C779 0 765 0 751.2 0C737.3 0 723.7 0 709.8 0C696 0 682 0 668 0C654 0 640 0 626 0C612 0 598 0 584.2 0C570.3 0 556.7 0 542.8 0C529 0 515 0 501 0C487 0 473 0 459 0C445 0 431 0 417.2 0C403.3 0 389.7 0 375.8 0C362 0 348 0 334 0C320 0 306 0 292 0C278 0 264 0 250.2 0C236.3 0 222.7 0 208.8 0C195 0 181 0 167 0C153 0 139 0 125 0C111 0 97 0 83.2 0C69.3 0 55.7 0 41.8 0C28 0 14 0 7 0L0 0Z" fill="#7b9e98"></path><path d="M0 31L7 31.2C14 31.3 28 31.7 41.8 31.3C55.7 31 69.3 30 83.2 31.8C97 33.7 111 38.3 125 40.2C139 42 153 41 167 41.3C181 41.7 195 43.3 208.8 41.5C222.7 39.7 236.3 34.3 250.2 31.3C264 28.3 278 27.7 292 27.3C306 27 320 27 334 29C348 31 362 35 375.8 37.3C389.7 39.7 403.3 40.3 417.2 41C431 41.7 445 42.3 459 40.2C473 38 487 33 501 31.8C515 30.7 529 33.3 542.8 35.8C556.7 38.3 570.3 40.7 584.2 39C598 37.3 612 31.7 626 29.5C640 27.3 654 28.7 668 30C682 31.3 696 32.7 709.8 34.2C723.7 35.7 737.3 37.3 751.2 38.8C765 40.3 779 41.7 793 40.2C807 38.7 821 34.3 835 32.2C849 30 863 30 876.8 29.3C890.7 28.7 904.3 27.3 918.2 26.7C932 26 946 26 953 26L960 26L960 0L953 0C946 0 932 0 918.2 0C904.3 0 890.7 0 876.8 0C863 0 849 0 835 0C821 0 807 0 793 0C779 0 765 0 751.2 0C737.3 0 723.7 0 709.8 0C696 0 682 0 668 0C654 0 640 0 626 0C612 0 598 0 584.2 0C570.3 0 556.7 0 542.8 0C529 0 515 0 501 0C487 0 473 0 459 0C445 0 431 0 417.2 0C403.3 0 389.7 0 375.8 0C362 0 348 0 334 0C320 0 306 0 292 0C278 0 264 0 250.2 0C236.3 0 222.7 0 208.8 0C195 0 181 0 167 0C153 0 139 0 125 0C111 0 97 0 83.2 0C69.3 0 55.7 0 41.8 0C28 0 14 0 7 0L0 0Z" fill="#92b6aa"></path><path d="M0 32L7 31C14 30 28 28 41.8 26C55.7 24 69.3 22 83.2 21.7C97 21.3 111 22.7 125 24.5C139 26.3 153 28.7 167 29.2C181 29.7 195 28.3 208.8 28.2C222.7 28 236.3 29 250.2 29.8C264 30.7 278 31.3 292 29.5C306 27.7 320 23.3 334 20.7C348 18 362 17 375.8 16.8C389.7 16.7 403.3 17.3 417.2 19.7C431 22 445 26 459 26.8C473 27.7 487 25.3 501 24C515 22.7 529 22.3 542.8 22.2C556.7 22 570.3 22 584.2 23.8C598 25.7 612 29.3 626 28.5C640 27.7 654 22.3 668 22.5C682 22.7 696 28.3 709.8 30.8C723.7 33.3 737.3 32.7 751.2 30.7C765 28.7 779 25.3 793 23.8C807 22.3 821 22.7 835 22C849 21.3 863 19.7 876.8 20.7C890.7 21.7 904.3 25.3 918.2 26.5C932 27.7 946 26.3 953 25.7L960 25L960 0L953 0C946 0 932 0 918.2 0C904.3 0 890.7 0 876.8 0C863 0 849 0 835 0C821 0 807 0 793 0C779 0 765 0 751.2 0C737.3 0 723.7 0 709.8 0C696 0 682 0 668 0C654 0 640 0 626 0C612 0 598 0 584.2 0C570.3 0 556.7 0 542.8 0C529 0 515 0 501 0C487 0 473 0 459 0C445 0 431 0 417.2 0C403.3 0 389.7 0 375.8 0C362 0 348 0 334 0C320 0 306 0 292 0C278 0 264 0 250.2 0C236.3 0 222.7 0 208.8 0C195 0 181 0 167 0C153 0 139 0 125 0C111 0 97 0 83.2 0C69.3 0 55.7 0 41.8 0C28 0 14 0 7 0L0 0Z" fill="#abcebc"></path><path d="M0 8L7 8C14 8 28 8 41.8 9.5C55.7 11 69.3 14 83.2 15.3C97 16.7 111 16.3 125 17.2C139 18 153 20 167 19.8C181 19.7 195 17.3 208.8 17C222.7 16.7 236.3 18.3 250.2 19.7C264 21 278 22 292 22.3C306 22.7 320 22.3 334 22.8C348 23.3 362 24.7 375.8 23.5C389.7 22.3 403.3 18.7 417.2 17C431 15.3 445 15.7 459 17.7C473 19.7 487 23.3 501 23.2C515 23 529 19 542.8 15.8C556.7 12.7 570.3 10.3 584.2 10.7C598 11 612 14 626 16.2C640 18.3 654 19.7 668 19.7C682 19.7 696 18.3 709.8 16.2C723.7 14 737.3 11 751.2 9.5C765 8 779 8 793 9.8C807 11.7 821 15.3 835 16.3C849 17.3 863 15.7 876.8 16.2C890.7 16.7 904.3 19.3 918.2 21.3C932 23.3 946 24.7 953 25.3L960 26L960 0L953 0C946 0 932 0 918.2 0C904.3 0 890.7 0 876.8 0C863 0 849 0 835 0C821 0 807 0 793 0C779 0 765 0 751.2 0C737.3 0 723.7 0 709.8 0C696 0 682 0 668 0C654 0 640 0 626 0C612 0 598 0 584.2 0C570.3 0 556.7 0 542.8 0C529 0 515 0 501 0C487 0 473 0 459 0C445 0 431 0 417.2 0C403.3 0 389.7 0 375.8 0C362 0 348 0 334 0C320 0 306 0 292 0C278 0 264 0 250.2 0C236.3 0 222.7 0 208.8 0C195 0 181 0 167 0C153 0 139 0 125 0C111 0 97 0 83.2 0C69.3 0 55.7 0 41.8 0C28 0 14 0 7 0L0 0Z" fill="#c6e7ce"></path><path d="M0 2L7 2.8C14 3.7 28 5.3 41.8 5.5C55.7 5.7 69.3 4.3 83.2 5.8C97 7.3 111 11.7 125 11.2C139 10.7 153 5.3 167 4.8C181 4.3 195 8.7 208.8 9.5C222.7 10.3 236.3 7.7 250.2 6.5C264 5.3 278 5.7 292 6.5C306 7.3 320 8.7 334 9.7C348 10.7 362 11.3 375.8 9.7C389.7 8 403.3 4 417.2 4.8C431 5.7 445 11.3 459 12C473 12.7 487 8.3 501 6.8C515 5.3 529 6.7 542.8 7C556.7 7.3 570.3 6.7 584.2 6.8C598 7 612 8 626 7.2C640 6.3 654 3.7 668 4.2C682 4.7 696 8.3 709.8 10.7C723.7 13 737.3 14 751.2 13.5C765 13 779 11 793 10C807 9 821 9 835 10.2C849 11.3 863 13.7 876.8 12.2C890.7 10.7 904.3 5.3 918.2 4.5C932 3.7 946 7.3 953 9.2L960 11L960 0L953 0C946 0 932 0 918.2 0C904.3 0 890.7 0 876.8 0C863 0 849 0 835 0C821 0 807 0 793 0C779 0 765 0 751.2 0C737.3 0 723.7 0 709.8 0C696 0 682 0 668 0C654 0 640 0 626 0C612 0 598 0 584.2 0C570.3 0 556.7 0 542.8 0C529 0 515 0 501 0C487 0 473 0 459 0C445 0 431 0 417.2 0C403.3 0 389.7 0 375.8 0C362 0 348 0 334 0C320 0 306 0 292 0C278 0 264 0 250.2 0C236.3 0 222.7 0 208.8 0C195 0 181 0 167 0C153 0 139 0 125 0C111 0 97 0 83.2 0C69.3 0 55.7 0 41.8 0C28 0 14 0 7 0L0 0Z" fill="#e3ffe0"></path>
</g></svg>