<svg id="visual" viewBox="0 0 960 200" width="960" height="200" xmlns="http://www.w3.org/2000/svg" xmlns:xlink="http://www.w3.org/1999/xlink" version="1.1"><rect x="0" y="0" width="960" height="200" fill="#000000"></rect><path d="M0 109L7 108.5C14 108 28 107 41.8 106.5C55.7 106 69.3 106 83.2 105.3C97 104.7 111 103.3 125 104.5C139 105.7 153 109.3 167 108.7C181 108 195 103 208.8 101.3C222.7 99.7 236.3 101.3 250.2 101.7C264 102 278 101 292 101.8C306 102.7 320 105.3 334 105.8C348 106.3 362 104.7 375.8 105.2C389.7 105.7 403.3 108.3 417.2 110.2C431 112 445 113 459 112.2C473 111.3 487 108.7 501 106C515 103.3 529 100.7 542.8 101.3C556.7 102 570.3 106 584.2 107.7C598 109.3 612 108.7 626 107.2C640 105.7 654 103.3 668 101.3C682 99.3 696 97.7 709.8 97.5C723.7 97.3 737.3 98.7 751.2 101.7C765 104.7 779 109.3 793 111C807 112.7 821 111.3 835 110.2C849 109 863 108 876.8 108.5C890.7 109 904.3 111 918.2 112.5C932 114 946 115 953 115.5L960 116L960 0L953 0C946 0 932 0 918.2 0C904.3 0 890.7 0 876.8 0C863 0 849 0 835 0C821 0 807 0 793 0C779 0 765 0 751.2 0C737.3 0 723.7 0 709.8 0C696 0 682 0 668 0C654 0 640 0 626 0C612 0 598 0 584.2 0C570.3 0 556.7 0 542.8 0C529 0 515 0 501 0C487 0 473 0 459 0C445 0 431 0 417.2 0C403.3 0 389.7 0 375.8 0C362 0 348 0 334 0C320 0 306 0 292 0C278 0 264 0 250.2 0C236.3 0 222.7 0 208.8 0C195 0 181 0 167 0C153 0 139 0 125 0C111 0 97 0 83.2 0C69.3 0 55.7 0 41.8 0C28 0 14 0 7 0L0 0Z" fill="#00070e"></path><path d="M0 100L7 98.3C14 96.7 28 93.3 41.8 91C55.7 88.7 69.3 87.3 83.2 86.8C97 86.3 111 86.7 125 88.8C139 91 153 95 167 98.7C181 102.3 195 105.7 208.8 106.2C222.7 106.7 236.3 104.3 250.2 104.2C264 104 278 106 292 106.2C306 106.3 320 104.7 334 101.7C348 98.7 362 94.3 375.8 95.5C389.7 96.7 403.3 103.3 417.2 106.5C431 109.7 445 109.3 459 106.7C473 104 487 99 501 95.2C515 91.3 529 88.7 542.8 90C556.7 91.3 570.3 96.7 584.2 97.2C598 97.7 612 93.3 626 91.3C640 89.3 654 89.7 668 89C682 88.3 696 86.7 709.8 89.2C723.7 91.7 737.3 98.3 751.2 98.8C765 99.3 779 93.7 793 93.3C807 93 821 98 835 97.8C849 97.7 863 92.3 876.8 93.5C890.7 94.7 904.3 102.3 918.2 102.8C932 103.3 946 96.7 953 93.3L960 90L960 0L953 0C946 0 932 0 918.2 0C904.3 0 890.7 0 876.8 0C863 0 849 0 835 0C821 0 807 0 793 0C779 0 765 0 751.2 0C737.3 0 723.7 0 709.8 0C696 0 682 0 668 0C654 0 640 0 626 0C612 0 598 0 584.2 0C570.3 0 556.7 0 542.8 0C529 0 515 0 501 0C487 0 473 0 459 0C445 0 431 0 417.2 0C403.3 0 389.7 0 375.8 0C362 0 348 0 334 0C320 0 306 0 292 0C278 0 264 0 250.2 0C236.3 0 222.7 0 208.8 0C195 0 181 0 167 0C153 0 139 0 125 0C111 0 97 0 83.2 0C69.3 0 55.7 0 41.8 0C28 0 14 0 7 0L0 0Z" fill="#151d22"></path><path d="M0 83L7 83.7C14 84.3 28 85.7 41.8 88.2C55.7 90.7 69.3 94.3 83.2 96C97 97.7 111 97.3 125 94.3C139 91.3 153 85.7 167 83.5C181 81.3 195 82.7 208.8 82.5C222.7 82.3 236.3 80.7 250.2 79C264 77.3 278 75.7 292 78C306 80.3 320 86.7 334 90.3C348 94 362 95 375.8 92.7C389.7 90.3 403.3 84.7 417.2 81C431 77.3 445 75.7 459 77C473 78.3 487 82.7 501 82.7C515 82.7 529 78.3 542.8 80C556.7 81.7 570.3 89.3 584.2 93.5C598 97.7 612 98.3 626 96.7C640 95 654 91 668 88.3C682 85.7 696 84.3 709.8 82.3C723.7 80.3 737.3 77.7 751.2 77.2C765 76.7 779 78.3 793 79.5C807 80.7 821 81.3 835 83.3C849 85.3 863 88.7 876.8 90.5C890.7 92.3 904.3 92.7 918.2 92.8C932 93 946 93 953 93L960 93L960 0L953 0C946 0 932 0 918.2 0C904.3 0 890.7 0 876.8 0C863 0 849 0 835 0C821 0 807 0 793 0C779 0 765 0 751.2 0C737.3 0 723.7 0 709.8 0C696 0 682 0 668 0C654 0 640 0 626 0C612 0 598 0 584.2 0C570.3 0 556.7 0 542.8 0C529 0 515 0 501 0C487 0 473 0 459 0C445 0 431 0 417.2 0C403.3 0 389.7 0 375.8 0C362 0 348 0 334 0C320 0 306 0 292 0C278 0 264 0 250.2 0C236.3 0 222.7 0 208.8 0C195 0 181 0 167 0C153 0 139 0 125 0C111 0 97 0 83.2 0C69.3 0 55.7 0 41.8 0C28 0 14 0 7 0L0 0Z" fill="#243036"></path><path d="M0 89L7 87.2C14 85.3 28 81.7 41.8 78.7C55.7 75.7 69.3 73.3 83.2 73C97 72.7 111 74.3 125 76C139 77.7 153 79.3 167 80.3C181 81.3 195 81.7 208.8 83.2C222.7 84.7 236.3 87.3 250.2 84.8C264 82.3 278 74.7 292 72.8C306 71 320 75 334 79C348 83 362 87 375.8 86C389.7 85 403.3 79 417.2 77.5C431 76 445 79 459 79.3C473 79.7 487 77.3 501 78.3C515 79.3 529 83.7 542.8 83C556.7 82.3 570.3 76.7 584.2 74C598 71.3 612 71.7 626 70.8C640 70 654 68 668 69.8C682 71.7 696 77.3 709.8 80.7C723.7 84 737.3 85 751.2 86.2C765 87.3 779 88.7 793 88.2C807 87.7 821 85.3 835 81.3C849 77.3 863 71.7 876.8 72.7C890.7 73.7 904.3 81.3 918.2 82C932 82.7 946 76.3 953 73.2L960 70L960 0L953 0C946 0 932 0 918.2 0C904.3 0 890.7 0 876.8 0C863 0 849 0 835 0C821 0 807 0 793 0C779 0 765 0 751.2 0C737.3 0 723.7 0 709.8 0C696 0 682 0 668 0C654 0 640 0 626 0C612 0 598 0 584.2 0C570.3 0 556.7 0 542.8 0C529 0 515 0 501 0C487 0 473 0 459 0C445 0 431 0 417.2 0C403.3 0 389.7 0 375.8 0C362 0 348 0 334 0C320 0 306 0 292 0C278 0 264 0 250.2 0C236.3 0 222.7 0 208.8 0C195 0 181 0 167 0C153 0 139 0 125 0C111 0 97 0 83.2 0C69.3 0 55.7 0 41.8 0C28 0 14 0 7 0L0 0Z" fill="#33444a"></path><path d="M0 75L7 72.8C14 70.7 28 66.3 41.8 66.7C55.7 67 69.3 72 83.2 73.8C97 75.7 111 74.3 125 71.2C139 68 153 63 167 62C181 61 195 64 208.8 65.8C222.7 67.7 236.3 68.3 250.2 70.3C264 72.3 278 75.7 292 77.5C306 79.3 320 79.7 334 78.8C348 78 362 76 375.8 72.8C389.7 69.7 403.3 65.3 417.2 66.5C431 67.7 445 74.3 459 75.5C473 76.7 487 72.3 501 72C515 71.7 529 75.3 542.8 75.8C556.7 76.3 570.3 73.7 584.2 70.8C598 68 612 65 626 65.3C640 65.7 654 69.3 668 68.8C682 68.3 696 63.7 709.8 63.7C723.7 63.7 737.3 68.3 751.2 72C765 75.7 779 78.3 793 78C807 77.7 821 74.3 835 73.3C849 72.3 863 73.7 876.8 72.7C890.7 71.7 904.3 68.3 918.2 66C932 63.7 946 62.3 953 61.7L960 61L960 0L953 0C946 0 932 0 918.2 0C904.3 0 890.7 0 876.8 0C863 0 849 0 835 0C821 0 807 0 793 0C779 0 765 0 751.2 0C737.3 0 723.7 0 709.8 0C696 0 682 0 668 0C654 0 640 0 626 0C612 0 598 0 584.2 0C570.3 0 556.7 0 542.8 0C529 0 515 0 501 0C487 0 473 0 459 0C445 0 431 0 417.2 0C403.3 0 389.7 0 375.8 0C362 0 348 0 334 0C320 0 306 0 292 0C278 0 264 0 250.2 0C236.3 0 222.7 0 208.8 0C195 0 181 0 167 0C153 0 139 0 125 0C111 0 97 0 83.2 0C69.3 0 55.7 0 41.8 0C28 0 14 0 7 0L0 0Z" fill="#435a5e"></path><path d="M0 51L7 53.5C14 56 28 61 41.8 60.7C55.7 60.3 69.3 54.7 83.2 55.5C97 56.3 111 63.7 125 66C139 68.3 153 65.7 167 65.8C181 66 195 69 208.8 66.7C222.7 64.3 236.3 56.7 250.2 54.8C264 53 278 57 292 57.3C306 57.7 320 54.3 334 53C348 51.7 362 52.3 375.8 52.7C389.7 53 403.3 53 417.2 54C431 55 445 57 459 59C473 61 487 63 501 63.2C515 63.3 529 61.7 542.8 62.2C556.7 62.7 570.3 65.3 584.2 66.7C598 68 612 68 626 65.8C640 63.7 654 59.3 668 57.7C682 56 696 57 709.8 58.8C723.7 60.7 737.3 63.3 751.2 64C765 64.7 779 63.3 793 62.5C807 61.7 821 61.3 835 61C849 60.7 863 60.3 876.8 58.5C890.7 56.7 904.3 53.3 918.2 55.3C932 57.3 946 64.7 953 68.3L960 72L960 0L953 0C946 0 932 0 918.2 0C904.3 0 890.7 0 876.8 0C863 0 849 0 835 0C821 0 807 0 793 0C779 0 765 0 751.2 0C737.3 0 723.7 0 709.8 0C696 0 682 0 668 0C654 0 640 0 626 0C612 0 598 0 584.2 0C570.3 0 556.7 0 542.8 0C529 0 515 0 501 0C487 0 473 0 459 0C445 0 431 0 417.2 0C403.3 0 389.7 0 375.8 0C362 0 348 0 334 0C320 0 306 0 292 0C278 0 264 0 250.2 0C236.3 0 222.7 0 208.8 0C195 0 181 0 167 0C153 0 139 0 125 0C111 0 97 0 83.2 0C69.3 0 55.7 0 41.8 0C28 0 14 0 7 0L0 0Z" fill="#547071"></path><path d="M0 54L7 52.3C14 50.7 28 47.3 41.8 47.8C55.7 48.3 69.3 52.7 83.2 52.8C97 53 111 49 125 46.7C139 44.3 153 43.7 167 46.7C181 49.7 195 56.3 208.8 56.2C222.7 56 236.3 49 250.2 47.7C264 46.3 278 50.7 292 53.2C306 55.7 320 56.3 334 56C348 55.7 362 54.3 375.8 54.2C389.7 54 403.3 55 417.2 55C431 55 445 54 459 52.8C473 51.7 487 50.3 501 49.5C515 48.7 529 48.3 542.8 50.3C556.7 52.3 570.3 56.7 584.2 55.8C598 55 612 49 626 46.7C640 44.3 654 45.7 668 48.8C682 52 696 57 709.8 59.2C723.7 61.3 737.3 60.7 751.2 57.5C765 54.3 779 48.7 793 48.8C807 49 821 55 835 55.8C849 56.7 863 52.3 876.8 52.2C890.7 52 904.3 56 918.2 56.5C932 57 946 54 953 52.5L960 51L960 0L953 0C946 0 932 0 918.2 0C904.3 0 890.7 0 876.8 0C863 0 849 0 835 0C821 0 807 0 793 0C779 0 765 0 751.2 0C737.3 0 723.7 0 709.8 0C696 0 682 0 668 0C654 0 640 0 626 0C612 0 598 0 584.2 0C570.3 0 556.7 0 542.8 0C529 0 515 0 501 0C487 0 473 0 459 0C445 0 431 0 417.2 0C403.3 0 389.7 0 375.8 0C362 0 348 0 334 0C320 0 306 0 292 0C278 0 264 0 250.2 0C236.3 0 222.7 0 208.8 0C195 0 181 0 167 0C153 0 139 0 125 0C111 0 97 0 83.2 0C69.3 0 55.7 0 41.8 0C28 0 14 0 7 0L0 0Z" fill="#678785"></path><path d="M0 32L7 34.2C14 36.3 28 40.7 41.8 41.7C55.7 42.7 69.3 40.3 83.2 41.2C97 42 111 46 125 46.3C139 46.7 153 43.3 167 42.8C181 42.3 195 44.7 208.8 45.5C222.7 46.3 236.3 45.7 250.2 43.3C264 41 278 37 292 36.5C306 36 320 39 334 39.2C348 39.3 362 36.7 375.8 36.8C389.7 37 403.3 40 417.2 42.3C431 44.7 445 46.3 459 47.8C473 49.3 487 50.7 501 51.2C515 51.7 529 51.3 542.8 49C556.7 46.7 570.3 42.3 584.2 42.7C598 43 612 48 626 48C640 48 654 43 668 42.7C682 42.3 696 46.7 709.8 46.3C723.7 46 737.3 41 751.2 38C765 35 779 34 793 35.2C807 36.3 821 39.7 835 42.8C849 46 863 49 876.8 50.3C890.7 51.7 904.3 51.3 918.2 51.7C932 52 946 53 953 53.5L960 54L960 0L953 0C946 0 932 0 918.2 0C904.3 0 890.7 0 876.8 0C863 0 849 0 835 0C821 0 807 0 793 0C779 0 765 0 751.2 0C737.3 0 723.7 0 709.8 0C696 0 682 0 668 0C654 0 640 0 626 0C612 0 598 0 584.2 0C570.3 0 556.7 0 542.8 0C529 0 515 0 501 0C487 0 473 0 459 0C445 0 431 0 417.2 0C403.3 0 389.7 0 375.8 0C362 0 348 0 334 0C320 0 306 0 292 0C278 0 264 0 250.2 0C236.3 0 222.7 0 208.8 0C195 0 181 0 167 0C153 0 139 0 125 0C111 0 97 0 83.2 0C69.3 0 55.7 0 41.8 0C28 0 14 0 7 0L0 0Z" fill="#7b9e98"></path><path d="M0 31L7 31.8C14 32.7 28 34.3 41.8 33.7C55.7 33 69.3 30 83.2 29.8C97 29.7 111 32.3 125 34.5C139 36.7 153 38.3 167 38C181 37.7 195 35.3 208.8 34.2C222.7 33 236.3 33 250.2 33C264 33 278 33 292 31.5C306 30 320 27 334 28.5C348 30 362 36 375.8 38.5C389.7 41 403.3 40 417.2 39.2C431 38.3 445 37.7 459 35.5C473 33.3 487 29.7 501 28.2C515 26.7 529 27.3 542.8 29.5C556.7 31.7 570.3 35.3 584.2 35C598 34.7 612 30.3 626 30.8C640 31.3 654 36.7 668 37.5C682 38.3 696 34.7 709.8 32.2C723.7 29.7 737.3 28.3 751.2 29.3C765 30.3 779 33.7 793 35.7C807 37.7 821 38.3 835 36.8C849 35.3 863 31.7 876.8 32.5C890.7 33.3 904.3 38.7 918.2 40.5C932 42.3 946 40.7 953 39.8L960 39L960 0L953 0C946 0 932 0 918.2 0C904.3 0 890.7 0 876.8 0C863 0 849 0 835 0C821 0 807 0 793 0C779 0 765 0 751.2 0C737.3 0 723.7 0 709.8 0C696 0 682 0 668 0C654 0 640 0 626 0C612 0 598 0 584.2 0C570.3 0 556.7 0 542.8 0C529 0 515 0 501 0C487 0 473 0 459 0C445 0 431 0 417.2 0C403.3 0 389.7 0 375.8 0C362 0 348 0 334 0C320 0 306 0 292 0C278 0 264 0 250.2 0C236.3 0 222.7 0 208.8 0C195 0 181 0 167 0C153 0 139 0 125 0C111 0 97 0 83.2 0C69.3 0 55.7 0 41.8 0C28 0 14 0 7 0L0 0Z" fill="#92b6aa"></path><path d="M0 17L7 17.8C14 18.7 28 20.3 41.8 23.3C55.7 26.3 69.3 30.7 83.2 32.8C97 35 111 35 125 34C139 33 153 31 167 30.8C181 30.7 195 32.3 208.8 31.7C222.7 31 236.3 28 250.2 26.8C264 25.7 278 26.3 292 26.3C306 26.3 320 25.7 334 24.7C348 23.7 362 22.3 375.8 22C389.7 21.7 403.3 22.3 417.2 21.5C431 20.7 445 18.3 459 19C473 19.7 487 23.3 501 25.5C515 27.7 529 28.3 542.8 27.2C556.7 26 570.3 23 584.2 22.7C598 22.3 612 24.7 626 24.3C640 24 654 21 668 21.3C682 21.7 696 25.3 709.8 25.2C723.7 25 737.3 21 751.2 19.8C765 18.7 779 20.3 793 20.7C807 21 821 20 835 19.3C849 18.7 863 18.3 876.8 19.3C890.7 20.3 904.3 22.7 918.2 25.7C932 28.7 946 32.3 953 34.2L960 36L960 0L953 0C946 0 932 0 918.2 0C904.3 0 890.7 0 876.8 0C863 0 849 0 835 0C821 0 807 0 793 0C779 0 765 0 751.2 0C737.3 0 723.7 0 709.8 0C696 0 682 0 668 0C654 0 640 0 626 0C612 0 598 0 584.2 0C570.3 0 556.7 0 542.8 0C529 0 515 0 501 0C487 0 473 0 459 0C445 0 431 0 417.2 0C403.3 0 389.7 0 375.8 0C362 0 348 0 334 0C320 0 306 0 292 0C278 0 264 0 250.2 0C236.3 0 222.7 0 208.8 0C195 0 181 0 167 0C153 0 139 0 125 0C111 0 97 0 83.2 0C69.3 0 55.7 0 41.8 0C28 0 14 0 7 0L0 0Z" fill="#abcebc"></path><path d="M0 14L7 14.2C14 14.3 28 14.7 41.8 16.2C55.7 17.7 69.3 20.3 83.2 19.2C97 18 111 13 125 12.7C139 12.3 153 16.7 167 17.8C181 19 195 17 208.8 16.5C222.7 16 236.3 17 250.2 19C264 21 278 24 292 23C306 22 320 17 334 16.7C348 16.3 362 20.7 375.8 20.5C389.7 20.3 403.3 15.7 417.2 13.2C431 10.7 445 10.3 459 12.2C473 14 487 18 501 19.2C515 20.3 529 18.7 542.8 18.5C556.7 18.3 570.3 19.7 584.2 19.5C598 19.3 612 17.7 626 16.3C640 15 654 14 668 13.7C682 13.3 696 13.7 709.8 12.7C723.7 11.7 737.3 9.3 751.2 8.2C765 7 779 7 793 7.8C807 8.7 821 10.3 835 12C849 13.7 863 15.3 876.8 15.7C890.7 16 904.3 15 918.2 16C932 17 946 20 953 21.5L960 23L960 0L953 0C946 0 932 0 918.2 0C904.3 0 890.7 0 876.8 0C863 0 849 0 835 0C821 0 807 0 793 0C779 0 765 0 751.2 0C737.3 0 723.7 0 709.8 0C696 0 682 0 668 0C654 0 640 0 626 0C612 0 598 0 584.2 0C570.3 0 556.7 0 542.8 0C529 0 515 0 501 0C487 0 473 0 459 0C445 0 431 0 417.2 0C403.3 0 389.7 0 375.8 0C362 0 348 0 334 0C320 0 306 0 292 0C278 0 264 0 250.2 0C236.3 0 222.7 0 208.8 0C195 0 181 0 167 0C153 0 139 0 125 0C111 0 97 0 83.2 0C69.3 0 55.7 0 41.8 0C28 0 14 0 7 0L0 0Z" fill="#c6e7ce"></path><path d="M0 13L7 12.8C14 12.7 28 12.3 41.8 11.7C55.7 11 69.3 10 83.2 8.5C97 7 111 5 125 5.5C139 6 153 9 167 10.7C181 12.3 195 12.7 208.8 11.3C222.7 10 236.3 7 250.2 5.5C264 4 278 4 292 5C306 6 320 8 334 8.3C348 8.7 362 7.3 375.8 6.7C389.7 6 403.3 6 417.2 7.7C431 9.3 445 12.7 459 12C473 11.3 487 6.7 501 4C515 1.3 529 0.7 542.8 0.8C556.7 1 570.3 2 584.2 2.8C598 3.7 612 4.3 626 4.5C640 4.7 654 4.3 668 5.7C682 7 696 10 709.8 9.5C723.7 9 737.3 5 751.2 2.8C765 0.7 779 0.3 793 0.3C807 0.3 821 0.7 835 1.3C849 2 863 3 876.8 3.8C890.7 4.7 904.3 5.3 918.2 6C932 6.7 946 7.3 953 7.7L960 8L960 0L953 0C946 0 932 0 918.2 0C904.3 0 890.7 0 876.8 0C863 0 849 0 835 0C821 0 807 0 793 0C779 0 765 0 751.2 0C737.3 0 723.7 0 709.8 0C696 0 682 0 668 0C654 0 640 0 626 0C612 0 598 0 584.2 0C570.3 0 556.7 0 542.8 0C529 0 515 0 501 0C487 0 473 0 459 0C445 0 431 0 417.2 0C403.3 0 389.7 0 375.8 0C362 0 348 0 334 0C320 0 306 0 292 0C278 0 264 0 250.2 0C236.3 0 222.7 0 208.8 0C195 0 181 0 167 0C153 0 139 0 125 0C111 0 97 0 83.2 0C69.3 0 55.7 0 41.8 0C28 0 14 0 7 0L0 0Z" fill="#e3ffe0"></path></svg>