<svg id="visual" viewBox="0 0 960 200" width="960" height="200" xmlns="http://www.w3.org/2000/svg" xmlns:xlink="http://www.w3.org/1999/xlink" version="1.1"><rect x="0" y="0" width="960" height="200" fill="#000000"></rect><path d="M0 106L7 104C14 102 28 98 41.8 98.3C55.7 98.7 69.3 103.3 83.2 103.8C97 104.3 111 100.7 125 100.5C139 100.3 153 103.7 167 102.8C181 102 195 97 208.8 96.7C222.7 96.3 236.3 100.7 250.2 102C264 103.3 278 101.7 292 101.7C306 101.7 320 103.3 334 102C348 100.7 362 96.3 375.8 95.8C389.7 95.3 403.3 98.7 417.2 100.2C431 101.7 445 101.3 459 101.2C473 101 487 101 501 99.7C515 98.3 529 95.7 542.8 95.3C556.7 95 570.3 97 584.2 96.8C598 96.7 612 94.3 626 96.2C640 98 654 104 668 105.7C682 107.3 696 104.7 709.8 102.3C723.7 100 737.3 98 751.2 100.2C765 102.3 779 108.7 793 112C807 115.3 821 115.7 835 111.7C849 107.7 863 99.3 876.8 98C890.7 96.7 904.3 102.3 918.2 106.5C932 110.7 946 113.3 953 114.7L960 116L960 0L953 0C946 0 932 0 918.2 0C904.3 0 890.7 0 876.8 0C863 0 849 0 835 0C821 0 807 0 793 0C779 0 765 0 751.2 0C737.3 0 723.7 0 709.8 0C696 0 682 0 668 0C654 0 640 0 626 0C612 0 598 0 584.2 0C570.3 0 556.7 0 542.8 0C529 0 515 0 501 0C487 0 473 0 459 0C445 0 431 0 417.2 0C403.3 0 389.7 0 375.8 0C362 0 348 0 334 0C320 0 306 0 292 0C278 0 264 0 250.2 0C236.3 0 222.7 0 208.8 0C195 0 181 0 167 0C153 0 139 0 125 0C111 0 97 0 83.2 0C69.3 0 55.7 0 41.8 0C28 0 14 0 7 0L0 0Z" fill="#00070e"></path><path d="M0 109L7 105.7C14 102.3 28 95.7 41.8 94.2C55.7 92.7 69.3 96.3 83.2 95.3C97 94.3 111 88.7 125 86.8C139 85 153 87 167 87.2C181 87.3 195 85.7 208.8 88.2C222.7 90.7 236.3 97.3 250.2 97.7C264 98 278 92 292 92.8C306 93.7 320 101.3 334 103.8C348 106.3 362 103.7 375.8 101.7C389.7 99.7 403.3 98.3 417.2 98.5C431 98.7 445 100.3 459 98.5C473 96.7 487 91.3 501 89C515 86.7 529 87.3 542.8 88.7C556.7 90 570.3 92 584.2 91.8C598 91.7 612 89.3 626 88.3C640 87.3 654 87.7 668 88.8C682 90 696 92 709.8 91.8C723.7 91.7 737.3 89.3 751.2 88.2C765 87 779 87 793 88.5C807 90 821 93 835 95.5C849 98 863 100 876.8 101C890.7 102 904.3 102 918.2 99.3C932 96.7 946 91.3 953 88.7L960 86L960 0L953 0C946 0 932 0 918.2 0C904.3 0 890.7 0 876.8 0C863 0 849 0 835 0C821 0 807 0 793 0C779 0 765 0 751.2 0C737.3 0 723.7 0 709.8 0C696 0 682 0 668 0C654 0 640 0 626 0C612 0 598 0 584.2 0C570.3 0 556.7 0 542.8 0C529 0 515 0 501 0C487 0 473 0 459 0C445 0 431 0 417.2 0C403.3 0 389.7 0 375.8 0C362 0 348 0 334 0C320 0 306 0 292 0C278 0 264 0 250.2 0C236.3 0 222.7 0 208.8 0C195 0 181 0 167 0C153 0 139 0 125 0C111 0 97 0 83.2 0C69.3 0 55.7 0 41.8 0C28 0 14 0 7 0L0 0Z" fill="#151d22"></path><path d="M0 95L7 95.8C14 96.7 28 98.3 41.8 98.2C55.7 98 69.3 96 83.2 94.5C97 93 111 92 125 91.3C139 90.7 153 90.3 167 91C181 91.7 195 93.3 208.8 92.8C222.7 92.3 236.3 89.7 250.2 89.2C264 88.7 278 90.3 292 90.3C306 90.3 320 88.7 334 88.2C348 87.7 362 88.3 375.8 89.7C389.7 91 403.3 93 417.2 94.2C431 95.3 445 95.7 459 92.3C473 89 487 82 501 82.2C515 82.3 529 89.7 542.8 91.7C556.7 93.7 570.3 90.3 584.2 90.2C598 90 612 93 626 92.3C640 91.7 654 87.3 668 85.3C682 83.3 696 83.7 709.8 83.8C723.7 84 737.3 84 751.2 86.7C765 89.3 779 94.7 793 97.2C807 99.7 821 99.3 835 99.2C849 99 863 99 876.8 98C890.7 97 904.3 95 918.2 91.5C932 88 946 83 953 80.5L960 78L960 0L953 0C946 0 932 0 918.2 0C904.3 0 890.7 0 876.8 0C863 0 849 0 835 0C821 0 807 0 793 0C779 0 765 0 751.2 0C737.3 0 723.7 0 709.8 0C696 0 682 0 668 0C654 0 640 0 626 0C612 0 598 0 584.2 0C570.3 0 556.7 0 542.8 0C529 0 515 0 501 0C487 0 473 0 459 0C445 0 431 0 417.2 0C403.3 0 389.7 0 375.8 0C362 0 348 0 334 0C320 0 306 0 292 0C278 0 264 0 250.2 0C236.3 0 222.7 0 208.8 0C195 0 181 0 167 0C153 0 139 0 125 0C111 0 97 0 83.2 0C69.3 0 55.7 0 41.8 0C28 0 14 0 7 0L0 0Z" fill="#243036"></path><path d="M0 79L7 77.5C14 76 28 73 41.8 70.8C55.7 68.7 69.3 67.3 83.2 69.8C97 72.3 111 78.7 125 78.8C139 79 153 73 167 73.8C181 74.7 195 82.3 208.8 85.5C222.7 88.7 236.3 87.3 250.2 85C264 82.7 278 79.3 292 79.8C306 80.3 320 84.7 334 86.3C348 88 362 87 375.8 86C389.7 85 403.3 84 417.2 84.2C431 84.3 445 85.7 459 85.7C473 85.7 487 84.3 501 82C515 79.7 529 76.3 542.8 73.5C556.7 70.7 570.3 68.3 584.2 67.8C598 67.3 612 68.7 626 71.2C640 73.7 654 77.3 668 80.8C682 84.3 696 87.7 709.8 86.5C723.7 85.3 737.3 79.7 751.2 75.7C765 71.7 779 69.3 793 71.7C807 74 821 81 835 84.5C849 88 863 88 876.8 85C890.7 82 904.3 76 918.2 75C932 74 946 78 953 80L960 82L960 0L953 0C946 0 932 0 918.2 0C904.3 0 890.7 0 876.8 0C863 0 849 0 835 0C821 0 807 0 793 0C779 0 765 0 751.2 0C737.3 0 723.7 0 709.8 0C696 0 682 0 668 0C654 0 640 0 626 0C612 0 598 0 584.2 0C570.3 0 556.7 0 542.8 0C529 0 515 0 501 0C487 0 473 0 459 0C445 0 431 0 417.2 0C403.3 0 389.7 0 375.8 0C362 0 348 0 334 0C320 0 306 0 292 0C278 0 264 0 250.2 0C236.3 0 222.7 0 208.8 0C195 0 181 0 167 0C153 0 139 0 125 0C111 0 97 0 83.2 0C69.3 0 55.7 0 41.8 0C28 0 14 0 7 0L0 0Z" fill="#33444a"></path><path d="M0 65L7 63.8C14 62.7 28 60.3 41.8 62C55.7 63.7 69.3 69.3 83.2 72.7C97 76 111 77 125 76.5C139 76 153 74 167 71.5C181 69 195 66 208.8 65.8C222.7 65.7 236.3 68.3 250.2 69.8C264 71.3 278 71.7 292 72.5C306 73.3 320 74.7 334 75.3C348 76 362 76 375.8 76C389.7 76 403.3 76 417.2 74.2C431 72.3 445 68.7 459 66.2C473 63.7 487 62.3 501 63.8C515 65.3 529 69.7 542.8 72C556.7 74.3 570.3 74.7 584.2 74.8C598 75 612 75 626 72.2C640 69.3 654 63.7 668 62.8C682 62 696 66 709.8 68C723.7 70 737.3 70 751.2 69.8C765 69.7 779 69.3 793 68.8C807 68.3 821 67.7 835 66.5C849 65.3 863 63.7 876.8 62.7C890.7 61.7 904.3 61.3 918.2 62.8C932 64.3 946 67.7 953 69.3L960 71L960 0L953 0C946 0 932 0 918.2 0C904.3 0 890.7 0 876.8 0C863 0 849 0 835 0C821 0 807 0 793 0C779 0 765 0 751.2 0C737.3 0 723.7 0 709.8 0C696 0 682 0 668 0C654 0 640 0 626 0C612 0 598 0 584.2 0C570.3 0 556.7 0 542.8 0C529 0 515 0 501 0C487 0 473 0 459 0C445 0 431 0 417.2 0C403.3 0 389.7 0 375.8 0C362 0 348 0 334 0C320 0 306 0 292 0C278 0 264 0 250.2 0C236.3 0 222.7 0 208.8 0C195 0 181 0 167 0C153 0 139 0 125 0C111 0 97 0 83.2 0C69.3 0 55.7 0 41.8 0C28 0 14 0 7 0L0 0Z" fill="#435a5e"></path><path d="M0 70L7 68.8C14 67.7 28 65.3 41.8 64C55.7 62.7 69.3 62.3 83.2 60.2C97 58 111 54 125 55.3C139 56.7 153 63.3 167 66.7C181 70 195 70 208.8 69.7C222.7 69.3 236.3 68.7 250.2 67.5C264 66.3 278 64.7 292 63.5C306 62.3 320 61.7 334 62.2C348 62.7 362 64.3 375.8 63.8C389.7 63.3 403.3 60.7 417.2 58.5C431 56.3 445 54.7 459 53.3C473 52 487 51 501 54.2C515 57.3 529 64.7 542.8 68C556.7 71.3 570.3 70.7 584.2 67.8C598 65 612 60 626 59.5C640 59 654 63 668 62.8C682 62.7 696 58.3 709.8 55.5C723.7 52.7 737.3 51.3 751.2 50.8C765 50.3 779 50.7 793 54C807 57.3 821 63.7 835 64.2C849 64.7 863 59.3 876.8 58C890.7 56.7 904.3 59.3 918.2 60.3C932 61.3 946 60.7 953 60.3L960 60L960 0L953 0C946 0 932 0 918.2 0C904.3 0 890.7 0 876.8 0C863 0 849 0 835 0C821 0 807 0 793 0C779 0 765 0 751.2 0C737.3 0 723.7 0 709.8 0C696 0 682 0 668 0C654 0 640 0 626 0C612 0 598 0 584.2 0C570.3 0 556.7 0 542.8 0C529 0 515 0 501 0C487 0 473 0 459 0C445 0 431 0 417.2 0C403.3 0 389.7 0 375.8 0C362 0 348 0 334 0C320 0 306 0 292 0C278 0 264 0 250.2 0C236.3 0 222.7 0 208.8 0C195 0 181 0 167 0C153 0 139 0 125 0C111 0 97 0 83.2 0C69.3 0 55.7 0 41.8 0C28 0 14 0 7 0L0 0Z" fill="#547071"></path><path d="M0 43L7 45.3C14 47.7 28 52.3 41.8 55.5C55.7 58.7 69.3 60.3 83.2 59.3C97 58.3 111 54.7 125 52.3C139 50 153 49 167 48C181 47 195 46 208.8 45.2C222.7 44.3 236.3 43.7 250.2 46.8C264 50 278 57 292 58.5C306 60 320 56 334 52.2C348 48.3 362 44.7 375.8 44.8C389.7 45 403.3 49 417.2 51.7C431 54.3 445 55.7 459 54.2C473 52.7 487 48.3 501 48.8C515 49.3 529 54.7 542.8 55.7C556.7 56.7 570.3 53.3 584.2 53.2C598 53 612 56 626 54.5C640 53 654 47 668 46C682 45 696 49 709.8 50.2C723.7 51.3 737.3 49.7 751.2 50.7C765 51.7 779 55.3 793 54.5C807 53.7 821 48.3 835 48C849 47.7 863 52.3 876.8 53.8C890.7 55.3 904.3 53.7 918.2 51.5C932 49.3 946 46.7 953 45.3L960 44L960 0L953 0C946 0 932 0 918.2 0C904.3 0 890.7 0 876.8 0C863 0 849 0 835 0C821 0 807 0 793 0C779 0 765 0 751.2 0C737.3 0 723.7 0 709.8 0C696 0 682 0 668 0C654 0 640 0 626 0C612 0 598 0 584.2 0C570.3 0 556.7 0 542.8 0C529 0 515 0 501 0C487 0 473 0 459 0C445 0 431 0 417.2 0C403.3 0 389.7 0 375.8 0C362 0 348 0 334 0C320 0 306 0 292 0C278 0 264 0 250.2 0C236.3 0 222.7 0 208.8 0C195 0 181 0 167 0C153 0 139 0 125 0C111 0 97 0 83.2 0C69.3 0 55.7 0 41.8 0C28 0 14 0 7 0L0 0Z" fill="#678785"></path><path d="M0 34L7 34C14 34 28 34 41.8 37.3C55.7 40.7 69.3 47.3 83.2 49.7C97 52 111 50 125 46.5C139 43 153 38 167 38.8C181 39.7 195 46.3 208.8 49.2C222.7 52 236.3 51 250.2 50.2C264 49.3 278 48.7 292 46.2C306 43.7 320 39.3 334 38.5C348 37.7 362 40.3 375.8 43.2C389.7 46 403.3 49 417.2 50.8C431 52.7 445 53.3 459 53.2C473 53 487 52 501 49C515 46 529 41 542.8 41C556.7 41 570.3 46 584.2 47.8C598 49.7 612 48.3 626 47.7C640 47 654 47 668 46.5C682 46 696 45 709.8 43.7C723.7 42.3 737.3 40.7 751.2 38.7C765 36.7 779 34.3 793 34.3C807 34.3 821 36.7 835 38.3C849 40 863 41 876.8 41.2C890.7 41.3 904.3 40.7 918.2 42.3C932 44 946 48 953 50L960 52L960 0L953 0C946 0 932 0 918.2 0C904.3 0 890.7 0 876.8 0C863 0 849 0 835 0C821 0 807 0 793 0C779 0 765 0 751.2 0C737.3 0 723.7 0 709.8 0C696 0 682 0 668 0C654 0 640 0 626 0C612 0 598 0 584.2 0C570.3 0 556.7 0 542.8 0C529 0 515 0 501 0C487 0 473 0 459 0C445 0 431 0 417.2 0C403.3 0 389.7 0 375.8 0C362 0 348 0 334 0C320 0 306 0 292 0C278 0 264 0 250.2 0C236.3 0 222.7 0 208.8 0C195 0 181 0 167 0C153 0 139 0 125 0C111 0 97 0 83.2 0C69.3 0 55.7 0 41.8 0C28 0 14 0 7 0L0 0Z" fill="#7b9e98"></path><path d="M0 26L7 28.2C14 30.3 28 34.7 41.8 36.8C55.7 39 69.3 39 83.2 37C97 35 111 31 125 31.5C139 32 153 37 167 37C181 37 195 32 208.8 31.2C222.7 30.3 236.3 33.7 250.2 35C264 36.3 278 35.7 292 35.5C306 35.3 320 35.7 334 34.8C348 34 362 32 375.8 30.3C389.7 28.7 403.3 27.3 417.2 26.7C431 26 445 26 459 26.5C473 27 487 28 501 30.8C515 33.7 529 38.3 542.8 39.2C556.7 40 570.3 37 584.2 34.5C598 32 612 30 626 30.8C640 31.7 654 35.3 668 36.2C682 37 696 35 709.8 35.5C723.7 36 737.3 39 751.2 38.5C765 38 779 34 793 34C807 34 821 38 835 40.3C849 42.7 863 43.3 876.8 43.2C890.7 43 904.3 42 918.2 41C932 40 946 39 953 38.5L960 38L960 0L953 0C946 0 932 0 918.2 0C904.3 0 890.7 0 876.8 0C863 0 849 0 835 0C821 0 807 0 793 0C779 0 765 0 751.2 0C737.3 0 723.7 0 709.8 0C696 0 682 0 668 0C654 0 640 0 626 0C612 0 598 0 584.2 0C570.3 0 556.7 0 542.8 0C529 0 515 0 501 0C487 0 473 0 459 0C445 0 431 0 417.2 0C403.3 0 389.7 0 375.8 0C362 0 348 0 334 0C320 0 306 0 292 0C278 0 264 0 250.2 0C236.3 0 222.7 0 208.8 0C195 0 181 0 167 0C153 0 139 0 125 0C111 0 97 0 83.2 0C69.3 0 55.7 0 41.8 0C28 0 14 0 7 0L0 0Z" fill="#92b6aa"></path><path d="M0 25L7 25C14 25 28 25 41.8 26.7C55.7 28.3 69.3 31.7 83.2 32C97 32.3 111 29.7 125 28C139 26.3 153 25.7 167 24C181 22.3 195 19.7 208.8 18.3C222.7 17 236.3 17 250.2 19.7C264 22.3 278 27.7 292 29.2C306 30.7 320 28.3 334 27.2C348 26 362 26 375.8 26.2C389.7 26.3 403.3 26.7 417.2 26.7C431 26.7 445 26.3 459 26.7C473 27 487 28 501 27.2C515 26.3 529 23.7 542.8 22.3C556.7 21 570.3 21 584.2 21.2C598 21.3 612 21.7 626 21.8C640 22 654 22 668 24C682 26 696 30 709.8 29.8C723.7 29.7 737.3 25.3 751.2 23.2C765 21 779 21 793 22.3C807 23.7 821 26.3 835 26.8C849 27.3 863 25.7 876.8 25C890.7 24.3 904.3 24.7 918.2 25.7C932 26.7 946 28.3 953 29.2L960 30L960 0L953 0C946 0 932 0 918.2 0C904.3 0 890.7 0 876.8 0C863 0 849 0 835 0C821 0 807 0 793 0C779 0 765 0 751.2 0C737.3 0 723.7 0 709.8 0C696 0 682 0 668 0C654 0 640 0 626 0C612 0 598 0 584.2 0C570.3 0 556.7 0 542.8 0C529 0 515 0 501 0C487 0 473 0 459 0C445 0 431 0 417.2 0C403.3 0 389.7 0 375.8 0C362 0 348 0 334 0C320 0 306 0 292 0C278 0 264 0 250.2 0C236.3 0 222.7 0 208.8 0C195 0 181 0 167 0C153 0 139 0 125 0C111 0 97 0 83.2 0C69.3 0 55.7 0 41.8 0C28 0 14 0 7 0L0 0Z" fill="#abcebc"></path><path d="M0 13L7 12C14 11 28 9 41.8 8.7C55.7 8.3 69.3 9.7 83.2 12.8C97 16 111 21 125 21.3C139 21.7 153 17.3 167 17.2C181 17 195 21 208.8 22.3C222.7 23.7 236.3 22.3 250.2 21.8C264 21.3 278 21.7 292 20.2C306 18.7 320 15.3 334 15.7C348 16 362 20 375.8 21C389.7 22 403.3 20 417.2 17.8C431 15.7 445 13.3 459 12.8C473 12.3 487 13.7 501 15.2C515 16.7 529 18.3 542.8 18C556.7 17.7 570.3 15.3 584.2 14C598 12.7 612 12.3 626 14.7C640 17 654 22 668 21.3C682 20.7 696 14.3 709.8 11.3C723.7 8.3 737.3 8.7 751.2 9.7C765 10.7 779 12.3 793 14C807 15.7 821 17.3 835 18C849 18.7 863 18.3 876.8 19.5C890.7 20.7 904.3 23.3 918.2 24C932 24.7 946 23.3 953 22.7L960 22L960 0L953 0C946 0 932 0 918.2 0C904.3 0 890.7 0 876.8 0C863 0 849 0 835 0C821 0 807 0 793 0C779 0 765 0 751.2 0C737.3 0 723.7 0 709.8 0C696 0 682 0 668 0C654 0 640 0 626 0C612 0 598 0 584.2 0C570.3 0 556.7 0 542.8 0C529 0 515 0 501 0C487 0 473 0 459 0C445 0 431 0 417.2 0C403.3 0 389.7 0 375.8 0C362 0 348 0 334 0C320 0 306 0 292 0C278 0 264 0 250.2 0C236.3 0 222.7 0 208.8 0C195 0 181 0 167 0C153 0 139 0 125 0C111 0 97 0 83.2 0C69.3 0 55.7 0 41.8 0C28 0 14 0 7 0L0 0Z" fill="#c6e7ce"></path><path d="M0 11L7 10.7C14 10.3 28 9.7 41.8 7.8C55.7 6 69.3 3 83.2 3.7C97 4.3 111 8.7 125 9C139 9.3 153 5.7 167 5.3C181 5 195 8 208.8 8C222.7 8 236.3 5 250.2 5.5C264 6 278 10 292 12.2C306 14.3 320 14.7 334 13C348 11.3 362 7.7 375.8 5.2C389.7 2.7 403.3 1.3 417.2 2.5C431 3.7 445 7.3 459 7.8C473 8.3 487 5.7 501 4.8C515 4 529 5 542.8 5.8C556.7 6.7 570.3 7.3 584.2 8.7C598 10 612 12 626 13.3C640 14.7 654 15.3 668 13C682 10.7 696 5.3 709.8 4.2C723.7 3 737.3 6 751.2 7.3C765 8.7 779 8.3 793 8.2C807 8 821 8 835 7.8C849 7.7 863 7.3 876.8 8.2C890.7 9 904.3 11 918.2 11.5C932 12 946 11 953 10.5L960 10L960 0L953 0C946 0 932 0 918.2 0C904.3 0 890.7 0 876.8 0C863 0 849 0 835 0C821 0 807 0 793 0C779 0 765 0 751.2 0C737.3 0 723.7 0 709.8 0C696 0 682 0 668 0C654 0 640 0 626 0C612 0 598 0 584.2 0C570.3 0 556.7 0 542.8 0C529 0 515 0 501 0C487 0 473 0 459 0C445 0 431 0 417.2 0C403.3 0 389.7 0 375.8 0C362 0 348 0 334 0C320 0 306 0 292 0C278 0 264 0 250.2 0C236.3 0 222.7 0 208.8 0C195 0 181 0 167 0C153 0 139 0 125 0C111 0 97 0 83.2 0C69.3 0 55.7 0 41.8 0C28 0 14 0 7 0L0 0Z" fill="#e3ffe0"></path></svg>